<?xml version="1.0" encoding="UTF-8" standalone="no"?>
<!DOCTYPE svg PUBLIC "-//W3C//DTD SVG 1.1//EN" "http://www.w3.org/Graphics/SVG/1.1/DTD/svg11.dtd">
<svg width="100%" height="100%" viewBox="0 0 100 50" version="1.1" xmlns="http://www.w3.org/2000/svg" xmlns:xlink="http://www.w3.org/1999/xlink" xml:space="preserve" xmlns:serif="http://www.serif.com/" style="fill-rule:evenodd;clip-rule:evenodd;stroke-linejoin:round;stroke-miterlimit:2;">
    <g transform="matrix(-0.00773407,3.5341e-34,-1.81573e-34,-0.00773407,99.2964,49.5825)">
        <path d="M7390,6279C6212,6230 5251,5948 4435,5413C4117,5203 3880,5005 3439,4577C3106,4254 2986,4146 2905,4099C2775,4023 2445,3943 1900,3856C1518,3795 1356,3748 1115,3630C729,3441 456,3193 222,2816C25,2501 -25,2299 10,1965C57,1506 261,1215 596,1130C666,1112 707,1110 1023,1110L1372,1110L1366,1143C1254,1676 1415,2217 1800,2600C2030,2831 2285,2970 2607,3043C2692,3062 2735,3065 2930,3065C3182,3065 3265,3052 3463,2984C3927,2822 4298,2445 4450,1980C4507,1807 4530,1663 4530,1477C4530,1343 4513,1175 4494,1126C4488,1111 4654,1110 6570,1110L8652,1110L8646,1133C8604,1286 8600,1610 8640,1793C8747,2294 9076,2710 9537,2926C9653,2981 9825,3033 9956,3054C10100,3077 10337,3075 10482,3051C11180,2931 11712,2369 11801,1656C11815,1538 11808,1299 11785,1191C11777,1150 11772,1115 11774,1113C11779,1107 11971,1130 12052,1146C12449,1224 12712,1459 12781,1795C12800,1888 12801,1931 12798,3053L12795,4215L12772,4290C12734,4413 12676,4512 12595,4593C12517,4672 12451,4715 12338,4762C12268,4792 12256,4793 12075,4800C11797,4811 11608,4856 11401,4959C11268,5026 11206,5070 10965,5266C10525,5623 10347,5746 10070,5886C9579,6133 9015,6248 8135,6280C7836,6291 7666,6291 7390,6279ZM8941,5620C9352,5579 9831,5403 10195,5159C10694,4824 10835,4469 10575,4204C10433,4061 10206,3950 9956,3902C9875,3887 9788,3885 9195,3885C8532,3885 8524,3885 8479,3906C8426,3931 8387,3977 8370,4035C8362,4064 8360,4232 8362,4650C8366,5164 8368,5231 8384,5285C8436,5461 8547,5579 8695,5616C8759,5632 8812,5633 8941,5620ZM7454,5566C7530,5529 7594,5465 7628,5392L7655,5335L7658,4777C7660,4419 7657,4199 7650,4162C7630,4053 7555,3929 7489,3894C7465,3882 7256,3880 5995,3880L4529,3880L4452,3906C4262,3969 4173,4076 4200,4206C4221,4307 4327,4448 4529,4642C4951,5049 5541,5337 6318,5515C6591,5577 6813,5599 7170,5596L7395,5595L7454,5566Z" style="fill:rgb(64,42,50);fill-rule:nonzero;"/>
        <path d="M2710,2815C2421,2766 2172,2636 1964,2425C1777,2236 1656,2007 1599,1737C1570,1601 1568,1368 1594,1230C1689,737 2033,342 2503,185C2776,94 3079,92 3352,181C3843,340 4194,756 4277,1275C4296,1396 4290,1635 4265,1750C4209,2008 4093,2223 3908,2415C3699,2633 3443,2767 3145,2815C3037,2833 2814,2833 2710,2815ZM3095,2093C3316,2038 3497,1856 3555,1631C3576,1550 3576,1395 3555,1315C3511,1142 3378,979 3220,901C3061,823 2901,811 2734,864C2420,964 2228,1302 2308,1618C2342,1751 2383,1823 2480,1920C2653,2094 2860,2152 3095,2093Z" style="fill:rgb(64,42,50);fill-rule:nonzero;"/>
        <path d="M9990,2816C9758,2775 9551,2683 9362,2538C9287,2480 9154,2337 9093,2248C8990,2100 8913,1918 8873,1730C8846,1604 8848,1330 8877,1200C8971,779 9227,447 9607,257C9797,161 9988,117 10210,117C10491,117 10721,186 10970,347C11074,415 11264,603 11335,710C11563,1053 11627,1463 11514,1858C11481,1976 11375,2186 11296,2291C11171,2456 10969,2621 10788,2704C10699,2745 10588,2783 10487,2805C10389,2828 10091,2834 9990,2816ZM10375,2094C10577,2042 10756,1872 10821,1670C10854,1569 10858,1415 10831,1315C10798,1194 10747,1106 10660,1020C10506,865 10291,801 10078,845C9886,886 9722,1014 9637,1191C9581,1307 9566,1379 9572,1507C9581,1677 9640,1810 9761,1931C9921,2090 10151,2151 10375,2094Z" style="fill:rgb(64,42,50);fill-rule:nonzero;"/>
    </g>
</svg>
