<?xml version="1.0" encoding="UTF-8" standalone="no"?>
<!DOCTYPE svg PUBLIC "-//W3C//DTD SVG 1.1//EN" "http://www.w3.org/Graphics/SVG/1.1/DTD/svg11.dtd">
<svg width="100%" height="100%" viewBox="0 0 512 512" version="1.1" xmlns="http://www.w3.org/2000/svg" xmlns:xlink="http://www.w3.org/1999/xlink" xml:space="preserve" xmlns:serif="http://www.serif.com/" style="fill-rule:evenodd;clip-rule:evenodd;stroke-linejoin:round;stroke-miterlimit:2;">
    <path d="M125.7,160L176,160C193.7,160 208,174.3 208,192C208,209.7 193.7,224 176,224L48,224C30.3,224 16,209.7 16,192L16,64C16,46.3 30.3,32 48,32C65.7,32 80,46.3 80,64L80,115.2L97.6,97.6C185.1,10.1 326.9,10.1 414.4,97.6C501.9,185.1 501.9,326.9 414.4,414.4C326.9,501.9 185.1,501.9 97.6,414.4C85.1,401.9 85.1,381.6 97.6,369.1C110.1,356.6 130.4,356.6 142.9,369.1C205.4,431.6 306.7,431.6 369.2,369.1C431.7,306.6 431.7,205.3 369.2,142.8C306.7,80.3 205.4,80.3 142.9,142.8L125.7,160Z" style="fill:rgb(28,43,60);fill-rule:nonzero;"/>
</svg>
