<?xml version="1.0" encoding="UTF-8" standalone="no"?>
<!DOCTYPE svg PUBLIC "-//W3C//DTD SVG 1.1//EN" "http://www.w3.org/Graphics/SVG/1.1/DTD/svg11.dtd">
<svg width="100%" height="100%" viewBox="0 0 2081 1563" version="1.1" xmlns="http://www.w3.org/2000/svg" xmlns:xlink="http://www.w3.org/1999/xlink" xml:space="preserve" xmlns:serif="http://www.serif.com/" style="fill-rule:evenodd;clip-rule:evenodd;stroke-linejoin:round;stroke-miterlimit:2;">
    <g id="Plan-de-travail1" serif:id="Plan de travail1" transform="matrix(1,0,0,0.96875,29.7807,-235.239)">
        <rect x="-29.781" y="242.828" width="2080.07" height="1612.74" style="fill:none;"/>
        <g id="g3897" transform="matrix(1,0,0,1.03226,-256.218,1682.41)">
            <path id="path3829" d="M1423.73,-1367.07C1199.84,-1367.07 1205.54,-1128.94 1008.56,-1123.97L406.612,-1123.97C323.415,-1123.97 256.437,-1057 256.437,-973.798L256.437,-8.304C256.437,74.893 323.415,141.87 406.612,141.87L2154.26,141.87C2237.46,141.87 2304.44,74.893 2304.44,-8.304L2304.44,-973.798C2304.44,-1057 2237.46,-1123.97 2154.26,-1123.97L1983.75,-1123.97C1786.77,-1128.94 1792.47,-1367.07 1568.58,-1367.07L1423.73,-1367.07ZM532.382,-1212.51C493.083,-1212.51 461.363,-1182.23 461.363,-1144.31L760.772,-1144.31C760.772,-1182.23 729.364,-1212.51 690.065,-1212.51L532.382,-1212.51Z" style="fill:rgb(149,142,129);fill-rule:nonzero;"/>
            <path d="M1496.12,-958.112C1234.07,-958.112 1021.32,-745.363 1021.32,-483.315C1021.32,-221.267 1234.07,-8.517 1496.12,-8.517C1758.16,-8.517 1970.91,-221.267 1970.91,-483.315C1970.91,-745.363 1758.16,-958.112 1496.12,-958.112ZM1496.12,-858.112C1702.97,-858.112 1870.91,-690.171 1870.91,-483.315C1870.91,-276.458 1702.97,-108.517 1496.12,-108.517C1289.26,-108.517 1121.32,-276.458 1121.32,-483.315C1121.32,-690.171 1289.26,-858.112 1496.12,-858.112Z" style="fill:rgb(20,20,20);"/>
            <circle id="path3775" cx="1256.7" cy="-691.88" r="86.706" style="fill:rgb(20,20,20);"/>
            <circle id="path3792" cx="1410.77" cy="-553.968" r="33.254" style="fill:rgb(20,20,20);"/>
            <rect id="rect3797" x="1366.88" y="-1317.58" width="258.549" height="144.114" style="fill:rgb(20,20,20);"/>
        </g>
    </g>
</svg>
