<?xml version="1.0" encoding="UTF-8" standalone="no"?>
<!DOCTYPE svg PUBLIC "-//W3C//DTD SVG 1.1//EN" "http://www.w3.org/Graphics/SVG/1.1/DTD/svg11.dtd">
<svg width="100%" height="100%" viewBox="0 0 728 808" version="1.1" xmlns="http://www.w3.org/2000/svg" xmlns:xlink="http://www.w3.org/1999/xlink" xml:space="preserve" xmlns:serif="http://www.serif.com/" style="fill-rule:evenodd;clip-rule:evenodd;stroke-linejoin:round;stroke-miterlimit:2;">
    <g id="Plan-de-travail1" serif:id="Plan de travail1" transform="matrix(0.860215,0,0,0.95947,-350.727,-784.971)">
        <rect x="407.72" y="818.13" width="845.477" height="841.148" style="fill:none;"/>
        <g transform="matrix(1.10662,0,0,1.02343,-160.889,-48.4522)">
            <path d="M1124.63,1165.62C1124.63,1153.34 1114.37,1143.39 1101.71,1143.39L617.989,1143.39C605.33,1143.39 595.069,1153.34 595.069,1165.62L595.069,1423.46C595.069,1435.73 605.33,1445.68 617.989,1445.68L1101.71,1445.68C1114.37,1445.68 1124.63,1435.73 1124.63,1423.46L1124.63,1165.62Z" style="fill:rgb(243,238,228);"/>
        </g>
        <g transform="matrix(8.80345e-17,-1.28899,1.31636,7.22656e-17,-155.8,2526.25)">
            <path d="M969.624,817.932C969.624,817.932 1056.3,996.544 1082.33,1050.17C1083.87,1053.34 1083.77,1057.17 1082.08,1060.25C1080.38,1063.33 1077.33,1065.21 1074.04,1065.21L865.21,1065.21C861.919,1065.21 858.869,1063.33 857.172,1060.25C855.476,1057.17 855.38,1053.34 856.922,1050.17C882.945,996.544 969.624,817.932 969.624,817.932Z" style="fill:rgb(243,238,228);"/>
        </g>
        <g transform="matrix(1.1625,0,0,1.04224,-202.807,-69.9565)">
            <path d="M718.39,939.753C783.342,939.753 836.075,992.486 836.075,1057.44C836.075,1122.39 783.342,1175.12 718.39,1175.12C653.438,1175.12 600.705,1122.39 600.705,1057.44C600.705,992.486 653.438,939.753 718.39,939.753ZM718.39,983.391C759.258,983.391 792.438,1016.57 792.438,1057.44C792.438,1098.31 759.258,1131.49 718.39,1131.49C677.522,1131.49 644.343,1098.31 644.343,1057.44C644.343,1016.57 677.522,983.391 718.39,983.391Z" style="fill:rgb(243,238,228);"/>
        </g>
        <g transform="matrix(0.525581,0,0,0.471211,253.794,531.303)">
            <circle cx="720.208" cy="1062.89" r="117.685" style="fill:rgb(243,238,228);"/>
        </g>
        <g transform="matrix(1.1625,0,0,1.04224,-202.807,-69.9565)">
            <path d="M963.851,861.024C1051.38,861.024 1122.45,932.088 1122.45,1019.62C1122.45,1107.15 1051.38,1178.21 963.851,1178.21C876.32,1178.21 805.256,1107.15 805.256,1019.62C805.256,932.088 876.32,861.024 963.851,861.024ZM963.851,923.753C1016.76,923.753 1059.72,966.709 1059.72,1019.62C1059.72,1072.53 1016.76,1115.49 963.851,1115.49C910.941,1115.49 867.985,1072.53 867.985,1019.62C867.985,966.709 910.941,923.753 963.851,923.753Z" style="fill:rgb(243,238,228);"/>
        </g>
        <g transform="matrix(0.732128,0,0,0.656391,390.386,295.059)">
            <circle cx="720.208" cy="1062.89" r="117.685" style="fill:rgb(243,238,228);"/>
        </g>
        <g transform="matrix(1.1625,0,0,1.04224,-200.694,-75.6416)">
            <path d="M744.164,1634.32L873.258,1396.13" style="fill:none;"/>
        </g>
        <g transform="matrix(1.1625,0,0,1.04224,-200.694,-75.6416)">
            <path d="M761.192,1643.55L890.287,1405.36C895.38,1395.96 891.886,1384.19 882.487,1379.1C873.089,1374.01 861.323,1377.5 856.229,1386.9L727.135,1625.09C722.041,1634.49 725.536,1646.25 734.934,1651.35C744.333,1656.44 756.098,1652.94 761.192,1643.55Z" style="fill:rgb(243,238,228);"/>
        </g>
        <g transform="matrix(-1.1625,0,0,1.04224,1781.86,-75.6416)">
            <path d="M744.164,1634.32L873.258,1396.13" style="fill:none;"/>
        </g>
        <g transform="matrix(-1.1625,0,0,1.04224,1781.86,-75.6416)">
            <path d="M727.135,1625.09L856.229,1386.9C861.323,1377.5 873.089,1374.01 882.487,1379.1C891.886,1384.19 895.38,1395.96 890.287,1405.36L761.192,1643.55C756.098,1652.94 744.333,1656.44 734.934,1651.35C725.536,1646.25 722.041,1634.49 727.135,1625.09Z" style="fill:rgb(243,238,228);"/>
        </g>
        <g transform="matrix(1.1625,0,0,0.829056,-198.58,213.294)">
            <path d="M643.529,1239.76C643.529,1226.31 634.857,1215.41 624.16,1215.41L556.886,1215.41C546.189,1215.41 537.517,1226.31 537.517,1239.76L537.517,1319.76C537.517,1333.21 546.189,1344.11 556.886,1344.11L624.16,1344.11C634.857,1344.11 643.529,1333.21 643.529,1319.76L643.529,1239.76ZM604.791,1264.11L604.791,1295.41L576.255,1295.41L576.255,1264.11L604.791,1264.11Z" style="fill:rgb(243,238,228);"/>
        </g>
    </g>
</svg>
