<?xml version="1.0" encoding="UTF-8" standalone="no"?>
<!DOCTYPE svg PUBLIC "-//W3C//DTD SVG 1.1//EN" "http://www.w3.org/Graphics/SVG/1.1/DTD/svg11.dtd">
<svg width="100%" height="100%" viewBox="0 0 1144 1115" version="1.1" xmlns="http://www.w3.org/2000/svg" xmlns:xlink="http://www.w3.org/1999/xlink" xml:space="preserve" xmlns:serif="http://www.serif.com/" style="fill-rule:evenodd;clip-rule:evenodd;stroke-linejoin:round;stroke-miterlimit:2;">
    <g id="Plan-de-travail1" serif:id="Plan de travail1" transform="matrix(0.97805,0,0,1.59754,-106.883,-1014.49)">
        <rect x="109.282" y="635.036" width="1169.15" height="697.926" style="fill:none;"/>
        <g transform="matrix(1.02244,0,0,0.625962,109.282,635.033)">
            <ellipse cx="589.461" cy="559.994" rx="466.454" ry="352.959" style="fill:rgb(243,238,228);"/>
        </g>
        <g transform="matrix(1.02244,0,0,0.625964,52.3121,592.684)">
            <path d="M636.096,102.453C930.385,102.453 1169.31,337.548 1169.31,627.118C1169.31,916.689 930.385,1151.78 636.096,1151.78C341.808,1151.78 102.883,916.689 102.883,627.118C102.883,337.548 341.808,102.453 636.096,102.453ZM376.562,603.891C376.562,603.891 596.987,679.164 633.864,691.756C637.238,692.909 640.899,692.909 644.271,691.756C680.826,679.248 897.639,605.086 897.639,605.086L898.228,746.308C901.738,912.765 372.077,919.389 375.843,745.744L376.562,603.891ZM986.061,557.81L1004.8,550.784L1005.02,641.632C1016.62,647.835 1024.7,671.488 1005.03,683.785C1067.55,855.133 923.084,851.589 985.371,684.029C969.883,672.893 970.691,649.628 986.053,641.876L986.061,557.81ZM229.096,524.655C225.958,523.597 223.842,520.657 223.834,517.345C223.826,514.034 225.927,511.085 229.06,510.011C308.667,482.72 584.325,388.224 630.983,372.23C635.348,370.734 640.087,370.735 644.452,372.231C690.877,388.157 963.975,481.842 1042.6,508.815C1045.72,509.885 1047.82,512.815 1047.83,516.113C1047.84,519.411 1045.75,522.351 1042.63,523.435C964.395,550.667 693.369,644.999 647.18,661.076C642.825,662.591 638.091,662.616 633.721,661.143C586.854,645.327 309.099,551.641 229.096,524.655Z" style="fill:rgb(20,20,20);"/>
        </g>
    </g>
</svg>
