<?xml version="1.0" encoding="UTF-8" standalone="no"?>
<!DOCTYPE svg PUBLIC "-//W3C//DTD SVG 1.1//EN" "http://www.w3.org/Graphics/SVG/1.1/DTD/svg11.dtd">
<svg width="100%" height="100%" viewBox="0 0 515 400" version="1.1" xmlns="http://www.w3.org/2000/svg" xmlns:xlink="http://www.w3.org/1999/xlink" xml:space="preserve" xmlns:serif="http://www.serif.com/" style="fill-rule:evenodd;clip-rule:evenodd;stroke-linejoin:round;stroke-miterlimit:2;">
    <g id="Plan-de-travail1" serif:id="Plan de travail1" transform="matrix(1,0,0,0.953552,1.71812,-38.2274)">
        <rect x="-1.718" y="40.089" width="514.291" height="419.221" style="fill:none;"/>
        <g transform="matrix(1,0,0,1.04871,0.281879,-17.4746)">
            <path d="M464,64C490.5,64 512,85.49 512,112C512,127.1 504.9,141.3 492.8,150.4L275.2,313.6C263.8,322.1 248.2,322.1 236.8,313.6L19.2,150.4C7.113,141.3 0,127.1 0,112C0,85.49 21.49,64 48,64L464,64ZM217.6,339.2C240.4,356.3 271.6,356.3 294.4,339.2L512,176L512,384C512,419.3 483.3,448 448,448L64,448C28.65,448 0,419.3 0,384L0,176L217.6,339.2Z" style="fill:rgb(243,238,228);fill-rule:nonzero;"/>
        </g>
    </g>
</svg>
