<?xml version="1.0" encoding="UTF-8" standalone="no"?>
<!DOCTYPE svg PUBLIC "-//W3C//DTD SVG 1.1//EN" "http://www.w3.org/Graphics/SVG/1.1/DTD/svg11.dtd">
<svg width="100%" height="100%" viewBox="0 0 1106 1078" version="1.1" xmlns="http://www.w3.org/2000/svg" xmlns:xlink="http://www.w3.org/1999/xlink" xml:space="preserve" xmlns:serif="http://www.serif.com/" style="fill-rule:evenodd;clip-rule:evenodd;stroke-linejoin:round;stroke-miterlimit:2;">
    <g id="Plan-de-travail2" serif:id="Plan de travail2" transform="matrix(1.04987,0,0,1.02362,-135.075,-93.3282)">
        <rect x="128.659" y="91.174" width="1052.65" height="1052.65" style="fill:none;"/>
        <g transform="matrix(0.9525,0,0,0.976923,128.659,91.1745)">
            <path d="M194.265,797.735C133.681,730.806 97.359,645.544 97.359,552.747C97.359,337.741 292.344,163.183 532.51,163.183C772.676,163.183 967.661,337.741 967.661,552.747C967.661,655.004 923.556,748.112 851.452,817.652L727.292,829.034L555.994,812.456L194.265,797.735Z" style="fill:rgb(243,238,228);"/>
        </g>
        <g transform="matrix(0.9525,0,0,0.976923,128.659,91.1745)">
            <path d="M113,821.216C58.843,739.114 27.377,641.203 27.377,536.118C27.377,246.549 266.301,11.454 560.588,11.454C854.876,11.454 1093.8,246.549 1093.8,536.118C1093.8,641.84 1061.95,740.301 1007.21,822.675L724.529,848.374L555.994,829.034L113,821.216ZM772.946,801.569C780.105,809.638 791.355,812.82 801.356,808.615C807.378,806.001 813.287,803.16 818.969,799.978L825.106,796.455C830.788,793.046 836.356,789.296 841.697,785.319C850.334,778.841 853.175,767.477 849.766,757.249L839.197,725.203C849.198,713.043 857.38,699.065 862.948,684.065L896.018,677.133C906.586,674.973 914.996,666.791 916.246,656.109C917.155,648.495 917.61,640.767 917.61,632.926C917.61,625.085 917.155,617.357 916.246,609.744C914.996,599.061 906.473,590.879 896.018,588.72L862.948,581.674C857.266,566.56 849.198,552.696 839.197,540.536L849.766,508.489C853.175,498.262 850.334,486.898 841.697,480.42C836.356,476.443 830.788,472.693 825.106,469.17L819.083,465.761C813.401,462.579 807.491,459.738 801.356,457.124C791.469,452.919 780.219,456.101 772.946,464.17L750.445,489.398C742.717,488.148 734.762,487.466 726.694,487.466C718.625,487.466 710.67,488.148 702.943,489.398L680.442,464.17C673.283,456.101 662.032,452.919 652.032,457.124C646.009,459.738 640.099,462.579 634.304,465.761L628.394,469.17C622.599,472.579 617.144,476.329 611.803,480.42C603.166,486.898 600.325,498.262 603.734,508.489L614.303,540.536C604.303,552.696 596.12,566.674 590.552,581.674L557.483,588.493C546.914,590.652 538.505,598.834 537.254,609.516C536.345,617.13 535.891,624.858 535.891,632.699C535.891,640.54 536.345,648.268 537.254,655.882C538.505,666.564 547.028,674.746 557.483,676.905L590.552,683.837C596.234,698.952 604.303,712.816 614.303,724.975L603.734,757.022C600.325,767.25 603.166,778.614 611.803,785.091C617.144,789.069 622.599,792.819 628.394,796.228L634.531,799.751C640.213,802.933 646.122,805.774 652.145,808.388C662.032,812.592 673.283,809.411 680.556,801.342L703.057,776.114C710.784,777.364 718.739,778.046 726.807,778.046C734.876,778.046 742.831,777.364 750.558,776.114L773.059,801.342L772.946,801.569ZM726.694,687.36C696.579,687.36 672.146,662.927 672.146,632.813C672.146,602.698 696.579,578.265 726.694,578.265C756.809,578.265 781.241,602.698 781.241,632.813C781.241,662.927 756.809,687.36 726.694,687.36ZM549.982,386.553C558.051,379.393 561.233,368.143 557.028,358.143C554.414,352.12 551.573,346.21 548.391,340.528L544.868,334.392C541.459,328.71 537.709,323.141 533.732,317.8C527.254,309.163 515.891,306.322 505.663,309.732L473.617,320.3C461.457,310.3 447.479,302.118 432.479,296.549L425.546,263.594C423.387,253.026 415.205,244.616 404.523,243.366C396.795,242.344 389.068,241.889 381.227,241.889C373.385,241.889 365.658,242.344 358.044,243.253C347.362,244.503 339.179,253.026 337.02,263.481L330.088,296.549C314.974,302.231 301.11,310.3 288.95,320.3L256.79,309.845C246.562,306.436 235.198,309.277 228.72,317.914C224.744,323.255 220.994,328.823 217.471,334.505L214.062,340.528C210.88,346.21 208.039,352.12 205.425,358.256C201.22,368.143 204.402,379.393 212.471,386.666L237.698,409.167C236.448,416.781 235.766,424.736 235.766,432.805C235.766,440.873 236.448,448.828 237.698,456.556L212.471,479.056C204.402,486.216 201.22,497.466 205.425,507.467C208.039,513.49 210.88,519.399 214.062,525.195L217.471,531.104C220.88,536.9 224.63,542.354 228.72,547.696C235.198,556.332 246.562,559.173 256.79,555.764L288.836,545.195C300.996,555.196 314.974,563.378 329.974,568.946L336.907,602.016C339.066,612.585 347.248,620.994 357.93,622.244C365.544,623.153 373.272,623.608 381.113,623.608C388.954,623.608 396.682,623.153 404.296,622.244C414.978,620.994 423.16,612.471 425.319,602.016L432.251,568.946C447.366,563.264 461.23,555.196 473.389,545.195L505.436,555.764C515.664,559.173 527.027,556.332 533.504,547.696C537.482,542.354 541.232,536.9 544.641,531.104L548.164,524.967C551.346,519.285 554.187,513.376 556.801,507.353C561.005,497.466 557.823,486.216 549.755,478.943L524.527,456.442C525.777,448.714 526.459,440.76 526.459,432.691C526.459,424.623 525.777,416.668 524.527,408.94L549.755,386.439L549.982,386.553ZM435.774,432.805C435.774,462.919 411.341,487.352 381.227,487.352C351.112,487.352 326.679,462.919 326.679,432.805C326.679,402.69 351.112,378.257 381.227,378.257C411.341,378.257 435.774,402.69 435.774,432.805Z" style="fill:rgb(20,20,20);"/>
        </g>
    </g>
</svg>
