<?xml version="1.0" encoding="UTF-8" standalone="no"?>
<!DOCTYPE svg PUBLIC "-//W3C//DTD SVG 1.1//EN" "http://www.w3.org/Graphics/SVG/1.1/DTD/svg11.dtd">
<svg width="100%" height="100%" viewBox="0 0 1006 1001" version="1.1" xmlns="http://www.w3.org/2000/svg" xmlns:xlink="http://www.w3.org/1999/xlink" xml:space="preserve" xmlns:serif="http://www.serif.com/" style="fill-rule:evenodd;clip-rule:evenodd;stroke-linejoin:round;stroke-miterlimit:2;">
    <g id="Plan-de-travail2" serif:id="Plan de travail2" transform="matrix(0.959716,0,0,0.982927,-44.9633,-35.1509)">
        <rect x="46.851" y="35.761" width="1047.92" height="1018.12" style="fill:none;"/>
        <g transform="matrix(1.11273,0,0,1.01737,-19.6209,35.7614)">
            <ellipse cx="537.226" cy="509.822" rx="402.282" ry="330.268" style="fill:rgb(243,238,228);"/>
        </g>
        <g transform="matrix(1.04198,0,0,1.01737,-24.3674,-17.531)">
            <path d="M573.846,62.597C842.812,62.597 1061.18,280.964 1061.18,549.93C1061.18,818.896 842.812,1037.26 573.846,1037.26C304.88,1037.26 86.513,818.896 86.513,549.93C86.513,280.964 304.88,62.597 573.846,62.597ZM627.589,723.514C627.632,723.99 627.653,724.469 627.653,724.951L627.653,724.952C627.653,729.281 625.933,733.433 622.872,736.494C619.81,739.555 615.658,741.275 611.329,741.275L540.046,741.275C535.716,741.275 531.565,739.555 528.503,736.494C525.442,733.433 523.722,729.281 523.722,724.952L523.722,724.951C523.722,724.469 523.743,723.99 523.786,723.514L264.105,723.514L264.105,754.069C264.105,765.441 273.324,774.66 284.696,774.66L865.236,774.66C876.608,774.66 885.831,765.441 885.831,754.069L885.831,723.514L627.589,723.514ZM857.463,346.123C857.463,339.379 854.784,332.911 850.016,328.143C845.246,323.374 838.779,320.695 832.035,320.695L317.254,320.695C310.51,320.695 304.043,323.374 299.274,328.143C294.505,332.911 291.826,339.379 291.826,346.123L291.826,705.741L857.463,705.741L857.463,346.123ZM823.214,355.982L326.076,355.982L326.076,673.568L823.214,673.568L823.214,355.982ZM531.103,561.229L503.065,629.683C501.956,632.391 503.254,635.49 505.962,636.599C508.67,637.708 511.769,636.41 512.877,633.702L540.916,565.249C542.025,562.541 540.727,559.442 538.02,558.332C535.311,557.223 532.212,558.521 531.103,561.229ZM701.637,511.234L697.323,519.006L677.474,515.292C668.095,513.538 659.042,519.736 657.288,529.116L644.56,597.135C642.805,606.515 649.004,615.567 658.383,617.322L760.413,636.413C769.792,638.168 778.844,631.97 780.599,622.59L793.327,554.57C795.082,545.192 788.884,536.139 779.504,534.384L759.657,530.67L758.444,521.863C757.692,516.332 753.485,511.915 747.985,510.886L715.357,504.78C709.857,503.751 704.339,506.349 701.637,511.234ZM493.437,576.445L459.809,593.354C457.988,594.27 456.854,596.148 456.89,598.185C456.926,600.223 458.128,602.06 459.979,602.91L493.459,618.275C496.119,619.496 499.27,618.328 500.49,615.668C501.71,613.009 500.542,609.859 497.883,608.638L474.428,597.873L498.201,585.918C500.815,584.604 501.871,581.414 500.557,578.8C499.242,576.186 496.051,575.13 493.437,576.445ZM548.134,585.918L571.907,597.873L548.452,608.638C545.792,609.859 544.624,613.009 545.845,615.668C547.066,618.328 550.215,619.496 552.875,618.275L586.355,602.91C588.207,602.06 589.409,600.223 589.444,598.185C589.481,596.148 588.346,594.27 586.525,593.354L552.897,576.445C550.283,575.13 547.093,576.186 545.779,578.8C544.464,581.414 545.519,584.604 548.134,585.918ZM714.171,601.36C700.088,598.725 690.801,585.162 693.436,571.08C696.071,556.998 709.634,547.711 723.717,550.346C737.799,552.98 747.086,566.543 744.451,580.626C741.816,594.708 728.253,603.995 714.171,601.36ZM382.155,469.898L481.671,405.486C481.671,405.486 476.627,397.693 472.97,392.043C471.986,390.523 470.438,389.455 468.667,389.076C466.896,388.696 465.047,389.036 463.526,390.02C444.559,402.297 383.962,441.518 364.995,453.795C363.474,454.78 362.407,456.327 362.028,458.098C361.649,459.869 361.988,461.717 362.973,463.238L366.189,468.209C363.56,470.752 362.338,474.602 363.326,478.392C364.417,482.577 367.897,485.511 371.923,486.112L388.974,551.511C389.404,553.159 390.471,554.568 391.94,555.43C393.41,556.291 395.16,556.534 396.808,556.104C418.205,550.525 488.681,532.15 510.077,526.571C511.725,526.142 513.135,525.074 513.996,523.605C514.858,522.136 515.101,520.386 514.671,518.737C509.689,499.632 494.934,443.041 494.934,443.041L383.302,472.148C383.007,471.34 382.619,470.587 382.155,469.898ZM680.568,371.823C682.704,373.405 683.97,375.937 683.97,378.6L683.97,467.212C683.97,478.868 672.63,488.31 658.652,488.31C644.675,488.31 633.335,478.868 633.335,467.212C633.335,455.555 644.675,446.113 658.652,446.113C661.606,446.113 664.455,446.536 667.092,447.327L667.092,408.928L599.578,429.182L599.578,484.089C599.578,495.746 588.238,505.188 574.26,505.188C560.283,505.188 548.943,495.746 548.943,484.089C548.943,472.433 560.283,462.992 574.26,462.992C577.214,462.992 580.062,463.414 582.7,464.205L582.7,403.918C582.7,400.199 585.152,396.903 588.713,395.821L673.104,370.504C675.663,369.739 678.432,370.213 680.568,371.823ZM384.803,476.505L401.124,472.302L399.131,486.244L382.459,490.6L384.803,476.505ZM413.529,469.016L429.85,464.812L427.856,478.754L411.185,483.11L413.529,469.016ZM372.145,470.696C374.935,469.968 377.789,471.642 378.516,474.431C379.243,477.22 377.57,480.074 374.78,480.802C371.992,481.529 369.137,479.855 368.41,477.066C367.682,474.278 369.357,471.423 372.145,470.696ZM315.016,439.5C315.016,436.859 312.875,434.719 310.235,434.719L310.232,434.719C307.592,434.719 305.451,436.859 305.451,439.5L305.451,472.448C305.451,475.089 307.592,477.229 310.232,477.229L310.235,477.229C312.875,477.229 315.016,475.089 315.016,472.448L315.016,439.5ZM844.743,439.5C844.743,436.859 842.602,434.719 839.961,434.719L839.959,434.719C837.319,434.719 835.178,436.859 835.178,439.5L835.178,472.448C835.178,475.089 837.319,477.229 839.959,477.229L839.961,477.229C842.602,477.229 844.743,475.089 844.743,472.448L844.743,439.5ZM442.162,461.55L458.483,457.347L456.49,471.289L439.818,475.644L442.162,461.55ZM470.856,454.069L487.177,449.865L485.184,463.807L468.512,468.163L470.856,454.069ZM377.55,466.104L375.426,453.129L389.532,443.905L392.122,457.749L378.63,466.638C378.281,466.44 377.92,466.262 377.55,466.104ZM400.48,437.008L414.587,427.785L417.177,441.628L402.788,451.109L400.48,437.008ZM425.467,421.005L439.573,411.781L442.164,425.624L427.775,435.105L425.467,421.005ZM450.497,404.791L464.604,395.568L467.194,409.411L452.805,418.892L450.497,404.791Z" style="fill:rgb(20,20,20);"/>
        </g>
    </g>
</svg>
