<?xml version="1.0" encoding="UTF-8" standalone="no"?>
<!DOCTYPE svg PUBLIC "-//W3C//DTD SVG 1.1//EN" "http://www.w3.org/Graphics/SVG/1.1/DTD/svg11.dtd">
<svg width="100%" height="100%" viewBox="0 0 618 532" version="1.1" xmlns="http://www.w3.org/2000/svg" xmlns:xlink="http://www.w3.org/1999/xlink" xml:space="preserve" xmlns:serif="http://www.serif.com/" style="fill-rule:evenodd;clip-rule:evenodd;stroke-linejoin:round;stroke-miterlimit:2;">
    <g id="Plan-de-travail1" serif:id="Plan de travail1" transform="matrix(0.812124,0,0,0.935481,72.0919,25.7163)">
        <rect x="-88.77" y="-27.49" width="760.555" height="568.102" style="fill:none;"/>
        <g transform="matrix(1.23134,0,0,1.06897,-167.752,-42.1829)">
            <path d="M431.759,348L427.362,348C399.973,348 377.752,369.5 377.752,396C377.752,399.4 378.165,402.7 378.785,405.9C380.956,416.1 385.503,425.9 389.948,435.8C396.252,449.6 402.454,463.3 402.454,477.8C402.454,509.6 380.129,538.5 347.262,539.8C343.644,539.9 340.027,540 336.306,540C190.264,540 71.819,425.4 71.819,284C71.819,142.6 190.264,28 336.409,28C437.322,28 525.029,82.64 569.65,163.011C517.841,225.645 470.839,288.788 431.759,348ZM597.109,240.01C599.667,254.297 601,268.997 601,284L601,286.7C600.587,323.2 566.272,348 528.548,348L513.517,348C541.783,314.047 570.19,277.322 597.109,240.01ZM204.114,316C204.114,298.3 189.334,284 171.04,284C152.746,284 137.966,298.3 137.966,316C137.966,333.7 152.746,348 171.04,348C189.334,348 204.114,333.7 204.114,316ZM204.114,220C222.408,220 237.188,205.7 237.188,188C237.188,170.3 222.408,156 204.114,156C185.82,156 171.04,170.3 171.04,188C171.04,205.7 185.82,220 204.114,220ZM468.705,220C486.999,220 501.779,205.7 501.779,188C501.779,170.3 486.999,156 468.705,156C450.411,156 435.631,170.3 435.631,188C435.631,205.7 450.411,220 468.705,220ZM369.483,124C369.483,106.3 354.703,92 336.409,92C318.115,92 303.336,106.3 303.336,124C303.336,141.7 318.115,156 336.409,156C354.703,156 369.483,141.7 369.483,124Z" style="fill:rgb(243,238,228);fill-rule:nonzero;"/>
        </g>
        <g transform="matrix(1.23134,0,0,1.06897,-167.752,-42.1829)">
            <path d="M593.481,154.275L622.763,180.367C578.576,251.266 518.01,330.092 465.989,383.364C438.383,411.633 416.73,396.915 435.564,365.467C474.402,300.617 530.366,225.483 593.481,154.275Z" style="fill:rgb(243,238,228);"/>
        </g>
        <g transform="matrix(1.23134,0,0,1.06897,-167.752,-42.1829)">
            <path d="M661.408,83.772C653.821,93.197 642.055,105.24 625.674,108.95C578.093,119.728 581.574,160.967 604.841,176.367C643.408,201.894 689.949,139.85 661.408,83.772" style="fill:rgb(243,238,228);"/>
        </g>
    </g>
</svg>
