<?xml version="1.0" encoding="UTF-8" standalone="no"?>
<!DOCTYPE svg PUBLIC "-//W3C//DTD SVG 1.1//EN" "http://www.w3.org/Graphics/SVG/1.1/DTD/svg11.dtd">
<svg width="100%" height="100%" viewBox="0 0 2638 2311" version="1.1" xmlns="http://www.w3.org/2000/svg" xmlns:xlink="http://www.w3.org/1999/xlink" xml:space="preserve" xmlns:serif="http://www.serif.com/" style="fill-rule:evenodd;clip-rule:evenodd;stroke-linejoin:round;stroke-miterlimit:2;">
    <g id="Plan-de-travail1" serif:id="Plan de travail1" transform="matrix(0.987745,0,0,1,-631.057,-242.172)">
        <rect x="638.886" y="242.172" width="2670.44" height="2310.45" style="fill:none;"/>
        <clipPath id="_clip1">
            <rect x="638.886" y="242.172" width="2670.44" height="2310.45"/>
        </clipPath>
        <g clip-path="url(#_clip1)">
            <g transform="matrix(1.01241,0,0,1,-40.1616,0.172059)">
                <path d="M1706.3,325.3L2100,325.3L2132.9,382.6L2245.7,382.6L3230.2,2088.2L3018.2,2449.7L2156.5,2449.7L2243.8,2600.3L2205.7,2600.3L2118.4,2449.7L1048.9,2449.7L994.1,2353.5L926.4,2353.5L730.7,2014.6L731.1,2014.6L981.9,1579.5L1214.2,1445.6L1598.7,780L1521.4,646.1L1706.3,325.3ZM1938.3,914L1258.3,2088.7L1909.1,2088.7L1834,1958.8L2543.2,1959.5L1938.3,914Z" style="fill:rgb(248,245,239);fill-rule:nonzero;"/>
            </g>
        </g>
    </g>
</svg>
