<?xml version="1.0" encoding="UTF-8" standalone="no"?>
<!DOCTYPE svg PUBLIC "-//W3C//DTD SVG 1.1//EN" "http://www.w3.org/Graphics/SVG/1.1/DTD/svg11.dtd">
<svg width="100%" height="100%" viewBox="0 0 729 860" version="1.1" xmlns="http://www.w3.org/2000/svg" xmlns:xlink="http://www.w3.org/1999/xlink" xml:space="preserve" xmlns:serif="http://www.serif.com/" style="fill-rule:evenodd;clip-rule:evenodd;stroke-linejoin:round;stroke-miterlimit:2;">
    <g id="Plan-de-travail1" serif:id="Plan de travail1" transform="matrix(0.711409,0,0,0.838926,0,0)">
        <rect x="0" y="0" width="1024" height="1024" style="fill:none;"/>
        <g transform="matrix(1.40566,0,0,1.192,-206.088,-92.8427)">
            <path d="M469.333,85.333L554.667,85.333L554.667,170.667L576,170.667C611.109,170.667 640,199.557 640,234.667L640,384L621.227,402.773L691.2,523.947C738.56,477.44 768,413.013 768,341.333L853.333,341.333C853.333,444.587 807.68,537.173 735.147,599.893L869.12,832L874.667,926.72L794.88,874.667L663.893,647.253C618.667,669.867 566.613,682.667 512,682.667C457.387,682.667 405.333,669.867 360.107,647.253L229.12,874.667L149.333,926.72L154.88,832L402.773,402.773L384,384L384,234.667C384,199.557 412.891,170.667 448,170.667L469.333,170.667L469.333,85.333M402.773,573.013C436.053,588.8 473.173,597.333 512,597.333C550.827,597.333 587.947,588.8 621.227,573.013L558.933,465.067L558.507,465.067C532.053,490.667 491.947,490.667 465.493,465.067L465.067,465.067L402.773,573.013M512,256C488.594,256 469.333,275.26 469.333,298.667C469.333,322.073 488.594,341.333 512,341.333C535.406,341.333 554.667,322.073 554.667,298.667C554.667,275.26 535.406,256 512,256Z" style="fill:rgb(243,238,228);fill-rule:nonzero;"/>
        </g>
    </g>
</svg>
