<?xml version="1.0" encoding="UTF-8" standalone="no"?>
<!DOCTYPE svg PUBLIC "-//W3C//DTD SVG 1.1//EN" "http://www.w3.org/Graphics/SVG/1.1/DTD/svg11.dtd">
<svg width="100%" height="100%" viewBox="0 0 512 408" version="1.1" xmlns="http://www.w3.org/2000/svg" xmlns:xlink="http://www.w3.org/1999/xlink" xml:space="preserve" xmlns:serif="http://www.serif.com/" style="fill-rule:evenodd;clip-rule:evenodd;stroke-linejoin:round;stroke-miterlimit:2;">
    <path d="M56.481,53.32C55.515,25.58 77.128,0 106.342,0L405.695,0C434.909,0 456.522,25.58 455.556,53.32C454.628,79.967 455.833,114.485 464.52,142.63C473.235,170.862 487.931,188.707 512,191L512,217C487.931,219.293 473.235,237.138 464.52,265.37C455.833,293.515 454.628,328.033 455.556,354.681C456.522,382.42 434.909,408 405.695,408L106.342,408C77.128,408 55.515,382.42 56.482,354.681C57.409,328.033 56.204,293.515 47.516,265.37C38.802,237.138 24.07,219.293 0,217L0,191C24.069,188.707 38.802,170.862 47.516,142.63C56.204,114.485 57.409,79.967 56.481,53.32ZM267.103,312.457C314.4,312.457 342.901,289.299 342.901,251.102C342.901,222.229 322.565,201.326 292.369,198.017L292.369,196.814C314.554,193.205 331.963,172.603 331.963,149.595C331.963,116.812 306.081,95.457 266.641,95.457L177.901,95.457L177.901,312.457L267.103,312.457ZM212.411,284.938L212.411,213.507L258.013,213.507C290.674,213.507 307.621,225.537 307.621,248.997C307.621,272.456 291.137,284.938 260.016,284.938L212.411,284.938ZM212.411,122.977L258.322,122.977C283.28,122.977 297.453,134.105 297.453,154.256C297.453,175.761 280.969,187.791 251.081,187.791L212.411,187.791L212.411,122.977Z" style="fill:rgb(243,238,228);fill-rule:nonzero;"/>
</svg>
