<?xml version="1.0" encoding="UTF-8" standalone="no"?>
<!DOCTYPE svg PUBLIC "-//W3C//DTD SVG 1.1//EN" "http://www.w3.org/Graphics/SVG/1.1/DTD/svg11.dtd">
<svg width="100%" height="100%" viewBox="0 0 2183 2500" version="1.1" xmlns="http://www.w3.org/2000/svg" xmlns:xlink="http://www.w3.org/1999/xlink" xml:space="preserve" xmlns:serif="http://www.serif.com/" style="fill-rule:evenodd;clip-rule:evenodd;stroke-linejoin:round;stroke-miterlimit:2;">
    <path d="M182.791,2238.11L0,4.194L2183,8.683L1989.72,2238.11L1099.74,2495.81L182.791,2238.11ZM1775.47,480.651L392.553,480.651L430.016,750.322L1086.25,750.322L440.508,1027.51L477.954,1288.2L1429.37,1288.2L1394.9,1652.27L1072.77,1715.21L780.616,1640.3L758.135,1433.53L489.943,1433.53L525.892,1863.55L1101.24,2023.86L1652.62,1848.57L1723.04,1008.02L1140.18,1008.02L1775.45,744.336L1775.47,480.651Z" style="fill:rgb(243,238,228);fill-rule:nonzero;"/>
    <path d="M1099.74,480.651L1099.74,216.948L1998.71,219.941L1838.4,2065.81L1099.74,2280.06L1099.74,2023.44L1101.24,2023.86L1652.62,1848.57L1723.04,1008.02L1140.18,1008.02L1775.45,744.336L1775.47,480.651L1099.74,480.651ZM1099.74,1288.2L1099.74,1709.94L1394.9,1652.27L1429.37,1288.2L1099.74,1288.2Z" style="fill:rgb(248,245,239);fill-rule:nonzero;"/>
</svg>
