<?xml version="1.0" encoding="UTF-8" standalone="no"?>
<!DOCTYPE svg PUBLIC "-//W3C//DTD SVG 1.1//EN" "http://www.w3.org/Graphics/SVG/1.1/DTD/svg11.dtd">
<svg width="100%" height="100%" viewBox="0 0 5118 5119" version="1.1" xmlns="http://www.w3.org/2000/svg" xmlns:xlink="http://www.w3.org/1999/xlink" xml:space="preserve" xmlns:serif="http://www.serif.com/" style="fill-rule:evenodd;clip-rule:evenodd;stroke-linejoin:round;stroke-miterlimit:2;">
    <path d="M2636.9,5118.9L2485.2,5118.9C2478.1,5116.3 2471.1,5115.7 2464,5115.7C2383,5111.8 2302.6,5105.4 2222.9,5094.5C2073.8,5075.2 1927.2,5042.4 1784.5,4996.8C1539.6,4918.4 1311.4,4805.9 1099.9,4659.3C903.8,4523 730.3,4362.3 579.2,4177.2C401.1,3959.9 262.3,3720.1 163.9,3456.6C75.8,3222.6 23.1,2980.3 7,2730.2C6.4,2716.7 4.4,2703.2 -0.1,2689.7L-0.1,2425.5C4.4,2413.9 6.3,2401.7 7,2389.5C10.2,2329.7 16.6,2269.9 24.4,2210.8C63,1925.4 147.8,1654.7 278.3,1398.2C368.3,1221.4 477.6,1056.9 606.1,905.1C733.4,754.7 876.1,620.3 1034.2,502.7C1292,311.1 1575.5,172.9 1885.3,88.1C2035.7,47 2189.4,20 2344.9,7.1C2372.5,4.5 2401.5,6.5 2429.1,0L2688.8,0C2708.7,5.8 2729.3,2.6 2749.2,4.5C2852.1,13.5 2954.3,26.4 3055.8,46.3C3375.3,109.3 3671.6,228.9 3945.5,405.6C4158.3,542.5 4346,707.7 4509.9,899.9C4641.7,1054.2 4753.5,1222 4844.8,1403.2C4952.8,1617.3 5029.9,1841.6 5073.7,2077.5C5096.8,2202.2 5114.2,2328.2 5114.8,2455.5C5114.8,2463.9 5116.7,2472.9 5117.4,2481.2L5117.4,2632.9C5114.8,2642.5 5114.8,2652.8 5114.2,2663.1C5114.2,2687.5 5114.2,2712 5112.3,2736.4C5100.7,2892 5076.3,3045.6 5037.7,3197.3C4963.8,3482.1 4844.8,3746.3 4679.6,3989.9C4556.8,4171.2 4413.5,4334.5 4248.9,4479.1C4085,4623.1 3905.6,4744.6 3710.8,4842.9C3486.4,4956 3250.5,5034.5 3003,5077.5C2907.9,5094.2 2812.1,5105.1 2715.7,5110.9C2690.3,5113.8 2663.3,5113.2 2636.9,5118.9ZM1602.6,3897.5C1645,3898.8 1692.6,3893.6 1740.2,3883.4C1881,3852.5 2000.6,3788.3 2092.5,3674.5C2148.4,3605.1 2195.4,3529.9 2235.9,3450.8C2283.5,3357.6 2323.3,3260.5 2358,3162.2C2400.4,3043.3 2436.4,2921.8 2464.1,2799C2479.5,2730.2 2462.2,2687.1 2386.3,2663.4C2289.9,2633.2 2192.8,2606.2 2093.8,2584.3C1929.9,2548.3 1764.7,2525.2 1596.2,2530.9C1548.6,2532.8 1501.1,2538 1454.1,2546.3C1317.8,2570.1 1202.1,2633.1 1107.6,2732.7C946.2,2902.4 882,3104.9 921.8,3335.7C979,3665.5 1270.9,3900.1 1602.6,3897.5ZM1874.5,1533.2C1872.6,1581.4 1881.6,1634.1 1896.4,1686.8C1924.7,1787.1 1971.6,1879 2026.9,1965.8C2152.9,2163.2 2311.7,2332.2 2484,2489.1C2498.1,2502 2514.9,2512.9 2532.9,2521.2C2550.9,2530.2 2568.9,2530.2 2587.5,2522.5C2605.5,2514.8 2621.6,2503.9 2635.1,2489.7C2694.9,2430.6 2754,2371.4 2810.6,2310.3C2890.3,2223.5 2966.2,2134.2 3035,2038.4C3097.4,1951.6 3153.3,1860.3 3194.4,1761.3C3235.5,1662.9 3255.5,1561.4 3242,1454.7C3219.5,1278.6 3144.3,1129.4 3009.9,1012.4C2851,874.3 2665.9,819 2457.6,849.8C2118.8,900 1873.2,1198.3 1874.5,1533.2ZM3544.6,3893.7C3561.3,3893.1 3591.5,3893.7 3621.7,3889.2C3824.8,3859 3985.5,3760.6 4098.7,3588.4C4187.4,3452.8 4223.4,3302.3 4206.7,3141C4191.3,2989.9 4130.2,2857.5 4026.7,2746.3C3936.7,2649.9 3829.3,2583 3699.5,2554.7C3628.1,2539.3 3555.5,2532.8 3482.9,2531.6C3396.8,2530.3 3311.3,2538 3226.4,2549.6C3056.7,2573.4 2890.8,2613.9 2727.6,2665.3C2710.9,2670.4 2695.5,2678.2 2682,2689.1C2664.6,2703.2 2655,2720.6 2655,2743.1C2655,2762.4 2656.9,2781.7 2661.4,2801C2671.7,2839.6 2680.7,2878.1 2691,2916.1C2738.6,3089.7 2796.4,3259.4 2875.5,3421.4C2921.1,3514.6 2973.9,3602.7 3041.4,3681.8C3092.8,3741.6 3152.6,3790.4 3224,3824.5C3321.6,3871.2 3423.1,3896.3 3544.6,3893.7Z" style="fill:rgb(243,238,228);fill-rule:nonzero;"/>
</svg>
