<?xml version="1.0" encoding="UTF-8" standalone="no"?>
<!DOCTYPE svg PUBLIC "-//W3C//DTD SVG 1.1//EN" "http://www.w3.org/Graphics/SVG/1.1/DTD/svg11.dtd">
<svg width="100%" height="100%" viewBox="0 0 87 87" version="1.1" xmlns="http://www.w3.org/2000/svg" xmlns:xlink="http://www.w3.org/1999/xlink" xml:space="preserve" xmlns:serif="http://www.serif.com/" style="fill-rule:evenodd;clip-rule:evenodd;stroke-linejoin:round;stroke-miterlimit:2;">
    <g id="Layer_2">
        <g id="Layer_1-2">
            <path d="M43.5,0C67.508,0 87,19.492 87,43.5C87,67.508 67.508,87 43.5,87C19.492,87 0,67.508 0,43.5C0,19.492 19.492,0 43.5,0ZM43.5,5.25C64.611,5.25 81.75,22.389 81.75,43.5C81.75,64.611 64.611,81.75 43.5,81.75C22.389,81.75 5.25,64.611 5.25,43.5C5.25,22.389 22.389,5.25 43.5,5.25Z" style="fill:rgb(235,235,235);"/>
            <path d="M23.72,44.33C23.82,50.66 27.82,53.27 32.56,53.27C35.005,53.355 37.44,52.901 39.69,51.94L40.49,55.3C37.788,56.473 34.865,57.053 31.92,57C24,57 19.24,51.67 19.24,44C19.24,36.33 23.82,30.1 31.38,30.1C39.75,30.1 41.98,37.45 41.98,42.19C41.99,42.925 41.919,43.66 41.77,44.38L23.72,44.33ZM37.46,41C37.46,38.07 36.23,33.44 30.96,33.44C26.22,33.44 24.14,37.75 23.77,41L37.46,41Z" style="fill:rgb(243,238,228);fill-rule:nonzero;"/>
            <path d="M49.81,30.64L53.48,36.12C54.48,37.56 55.24,38.89 56.09,40.28L56.2,40.28C57.05,38.84 57.96,37.46 58.81,36.07L62.38,30.64L67.49,30.64L58.7,43.05L67.76,56.36L62.48,56.36L58.65,50.61C57.65,49.06 56.79,47.61 55.88,46.08L55.77,46.08C54.92,47.68 54.02,49.01 53.06,50.61L49.33,56.36L44.17,56.36L53.33,43.21L44.59,30.64L49.81,30.64Z" style="fill:rgb(243,238,228);fill-rule:nonzero;"/>
        </g>
    </g>
</svg>
