<?xml version="1.0" encoding="UTF-8" standalone="no"?>
<!DOCTYPE svg PUBLIC "-//W3C//DTD SVG 1.1//EN" "http://www.w3.org/Graphics/SVG/1.1/DTD/svg11.dtd">
<svg width="100%" height="100%" viewBox="0 0 512 758" version="1.1" xmlns="http://www.w3.org/2000/svg" xmlns:xlink="http://www.w3.org/1999/xlink" xml:space="preserve" xmlns:serif="http://www.serif.com/" style="fill-rule:evenodd;clip-rule:evenodd;stroke-linejoin:round;stroke-miterlimit:2;">
    <g id="Plan-de-travail1" serif:id="Plan de travail1" transform="matrix(0.639821,0,0,0.946309,0,0)">
        <rect x="0" y="0" width="800" height="800" style="fill:none;"/>
        <g transform="matrix(1.56294,0,0,1.05674,-223.776,-20.8038)">
            <path d="M525,275C593.573,275 650,218.573 650,150C650,81.427 593.573,25 525,25L275,25C206.427,25 150,81.427 150,150C150,218.573 206.427,275 275,275C206.427,275 150,331.427 150,400C150,468.573 206.427,525 275,525C206.427,525 150,581.427 150,650C150,718.573 206.427,775 275,775C343.573,775 400,718.573 400,650L400,275L525,275Z" style="fill:rgb(243,238,228);fill-rule:nonzero;"/>
        </g>
        <g transform="matrix(1.56294,0,0,1.05674,-223.776,-20.8038)">
            <circle cx="525" cy="400" r="125" style="fill:rgb(243,238,228);"/>
        </g>
    </g>
</svg>
