<?xml version="1.0" encoding="UTF-8" standalone="no"?>
<!DOCTYPE svg PUBLIC "-//W3C//DTD SVG 1.1//EN" "http://www.w3.org/Graphics/SVG/1.1/DTD/svg11.dtd">
<svg width="100%" height="100%" viewBox="0 0 614 684" version="1.1" xmlns="http://www.w3.org/2000/svg" xmlns:xlink="http://www.w3.org/1999/xlink" xml:space="preserve" xmlns:serif="http://www.serif.com/" style="fill-rule:evenodd;clip-rule:evenodd;stroke-linejoin:round;stroke-miterlimit:2;">
    <g id="Plan-de-travail1" serif:id="Plan de travail1" transform="matrix(0.767338,0,0,0.854586,0,0)">
        <rect x="0" y="0" width="800" height="800" style="fill:none;"/>
        <g transform="matrix(1.30321,0,0,1.17016,-118.95,-71.2042)">
            <g>
                <g>
                    <path d="M700,433.333L400,300L400,433.333L700,566.667L700,433.333ZM700,200L400,66.667L400,200L700,333.333L700,200Z" style="fill:rgb(243,238,228);fill-rule:nonzero;"/>
                    <path id="Rectangle-7" d="M100,200L400,66.667L400,200L100,333.333L100,200Z" style="fill:rgb(248,245,239);fill-rule:nonzero;"/>
                    <path id="Rectangle-7-2" d="M100,433.333L400,300L400,433.333L100,566.667L100,433.333Z" style="fill:rgb(248,245,239);fill-rule:nonzero;"/>
                    <path id="Rectangle-7-3" d="M400,600L512.333,550L662.667,616.667L400,733.333L400,600Z" style="fill:rgb(243,238,228);fill-rule:nonzero;"/>
                </g>
            </g>
        </g>
    </g>
</svg>
