<?xml version="1.0" encoding="UTF-8" standalone="no"?>
<!DOCTYPE svg PUBLIC "-//W3C//DTD SVG 1.1//EN" "http://www.w3.org/Graphics/SVG/1.1/DTD/svg11.dtd">
<svg width="100%" height="100%" viewBox="0 0 2183 2500" version="1.1" xmlns="http://www.w3.org/2000/svg" xmlns:xlink="http://www.w3.org/1999/xlink" xml:space="preserve" xmlns:serif="http://www.serif.com/" style="fill-rule:evenodd;clip-rule:evenodd;stroke-linejoin:round;stroke-miterlimit:2;">
    <path d="M182.791,2238.12L0,4.176L2183,8.665L1989.72,2238.12L1099.74,2495.82L182.791,2238.12ZM1751.51,732.347L1776.96,459.648L394.049,459.648L470.454,1295.7L1424.87,1295.7L1387.44,1652.29L1081.78,1734.68L771.638,1644.79L755.16,1432.03L480.947,1432.03L518.41,1866.54L1081.77,2023.86L1649.61,1866.54L1726.01,1018.51L723.682,1018.51L695.215,732.347L1751.51,732.347Z" style="fill:rgb(243,238,228);fill-rule:nonzero;"/>
    <path d="M1099.74,459.648L1099.74,216.93L1998.71,219.923L1838.4,2065.81L1099.74,2280.08L1099.74,2018.88L1649.61,1866.54L1726.01,1018.51L1099.74,1018.51L1099.74,732.347L1751.51,732.347L1776.96,459.648L1099.74,459.648ZM1099.74,1295.7L1099.74,1729.84L1387.44,1652.29L1424.87,1295.7L1099.74,1295.7Z" style="fill:rgb(248,245,239);fill-rule:nonzero;"/>
</svg>
