<?xml version="1.0" encoding="UTF-8" standalone="no"?>
<!DOCTYPE svg PUBLIC "-//W3C//DTD SVG 1.1//EN" "http://www.w3.org/Graphics/SVG/1.1/DTD/svg11.dtd">
<svg width="100%" height="100%" viewBox="0 0 2183 2500" version="1.1" xmlns="http://www.w3.org/2000/svg" xmlns:xlink="http://www.w3.org/1999/xlink" xml:space="preserve" xmlns:serif="http://www.serif.com/" style="fill-rule:evenodd;clip-rule:evenodd;stroke-linejoin:round;stroke-miterlimit:2;">
    <path d="M182.791,2238.12L0,4.176L2183,8.665L1989.72,2238.12L1099.74,2495.82L182.791,2238.12ZM1003.48,461.902L765.81,461.902L765.81,1835.08L580.96,1799.87L580.96,1615.02L360.899,1579.81L360.899,1993.52L1003.48,2160.77L1003.48,461.902ZM1839.64,462.263L1839.71,461.902L1181.76,461.902L1181.76,1453.93L1588.97,1396.49L1566.83,1755.86L1181.76,1887.89L1181.76,2137.16L1181.57,2160.72L1181.76,2160.68L1181.76,2160.77L1477.43,2092.27L1752.59,2028.61L1795.99,1158.31L1795.63,1158.31L1795.69,1156.99L1434.08,1156.99L1435.15,725.932L1625.37,725.094L1795.69,725.094L1795.82,724.343L1797.16,724.337L1840.23,462.264L1839.64,462.263Z" style="fill:rgb(243,238,228);fill-rule:nonzero;"/>
    <path d="M1099.74,2280.08L1099.74,216.93L1998.71,219.923L1838.4,2065.81L1099.74,2280.08ZM1181.76,461.902L1181.76,1453.93L1589.56,1396.41L1568.44,1756.49L1183.73,1889.03L1181.57,2160.72L1752.59,2028.61L1795.99,1158.31L1434.08,1158.22L1435.15,725.932L1797.16,724.337L1840.23,462.264L1181.76,461.902Z" style="fill:rgb(248,245,239);fill-rule:nonzero;"/>
</svg>
