<?xml version="1.0" encoding="UTF-8" standalone="no"?>
<!DOCTYPE svg PUBLIC "-//W3C//DTD SVG 1.1//EN" "http://www.w3.org/Graphics/SVG/1.1/DTD/svg11.dtd">
<svg width="100%" height="100%" viewBox="0 0 100 94" version="1.1" xmlns="http://www.w3.org/2000/svg" xmlns:xlink="http://www.w3.org/1999/xlink" xml:space="preserve" xmlns:serif="http://www.serif.com/" style="fill-rule:evenodd;clip-rule:evenodd;stroke-linejoin:round;stroke-miterlimit:2;">
    <g transform="matrix(0.945094,0,0,0.945094,6.3014,4.34701)">
        <path d="M20.44,13.78C15.157,21.513 15.815,31.573 19.84,39.78L20.136,40.365L20.336,40.735C20.373,40.807 20.416,40.878 20.454,40.948C20.524,41.078 20.594,41.203 20.654,41.331L21.039,42.004L21.259,42.374L21.706,43.086L21.906,43.386C22.106,43.706 22.332,44.024 22.554,44.338C22.559,44.346 22.566,44.355 22.572,44.363C22.607,44.413 22.646,44.463 22.672,44.513C22.864,44.783 23.072,45.049 23.272,45.313L23.494,45.601L24.039,46.283L24.247,46.537C24.495,46.836 24.748,47.131 25.007,47.421L25.023,47.437C25.033,47.45 25.043,47.457 25.053,47.47C25.304,47.753 25.561,48.03 25.825,48.3L26.073,48.554L26.69,49.17L26.942,49.414C27.219,49.68 27.501,49.941 27.787,50.197L27.947,50.337L28.714,50.997L29.032,51.255L29.672,51.755L30.014,52.02L30.992,52.735C31.017,52.752 31.039,52.77 31.064,52.787C31.294,52.947 31.527,53.102 31.761,53.257L32.063,53.462L33.155,54.142L33.457,54.315L34.277,54.783C34.427,54.865 34.58,54.943 34.73,55.021L35.316,55.321L35.451,55.387L35.691,55.505L36.621,55.943L36.818,56.043C37.177,56.202 37.538,56.355 37.902,56.502L38.166,56.608L39.189,56.994L39.317,57.04C39.695,57.173 40.075,57.3 40.457,57.42L40.732,57.504C41.132,57.624 41.507,57.767 41.909,57.844C67.457,62.6 74.88,42.218 74.88,42.218C68.647,50.488 57.584,52.668 47.102,50.241C46.705,50.141 46.32,50.024 45.932,49.907L45.64,49.807C45.262,49.689 44.886,49.564 44.514,49.434L44.359,49.377C44.026,49.257 43.695,49.132 43.366,49.002L43.086,48.89C42.726,48.745 42.369,48.594 42.014,48.436L41.8,48.34L40.896,47.91L40.636,47.782C40.401,47.664 40.168,47.543 39.936,47.419L39.469,47.169C39.187,47.014 38.907,46.855 38.631,46.69L38.348,46.53C37.98,46.31 37.616,46.08 37.256,45.85C37.156,45.785 37.06,45.716 36.961,45.65L36.184,45.124L35.934,44.944L35.199,44.404L34.873,44.154L34.21,43.626L33.914,43.386L33.089,42.686C33.061,42.661 33.029,42.636 32.989,42.609C32.695,42.346 32.406,42.076 32.121,41.805L31.877,41.565L31.253,40.943L31.009,40.693C30.749,40.423 30.494,40.148 30.244,39.869C30.232,39.855 30.218,39.842 30.206,39.829C29.942,39.534 29.683,39.234 29.43,38.929L29.227,38.683L28.667,37.98L28.462,37.72L27.817,36.845C21.997,28.76 19.917,17.61 24.557,8.452M36.84,7.264C33.02,12.864 33.227,20.358 36.207,26.28C36.705,27.274 37.27,28.234 37.897,29.153C38.469,29.988 39.104,30.983 39.864,31.653C40.139,31.953 40.427,32.253 40.721,32.559C40.795,32.636 40.871,32.709 40.947,32.786C41.232,33.069 41.524,33.346 41.823,33.615C41.835,33.625 41.846,33.637 41.859,33.647C42.195,33.946 42.539,34.236 42.89,34.517L43.122,34.701C43.472,34.976 43.828,35.241 44.192,35.497C44.202,35.505 44.212,35.513 44.222,35.52C44.382,35.633 44.547,35.74 44.71,35.848C44.788,35.9 44.862,35.955 44.94,36.004C45.201,36.175 45.465,36.34 45.733,36.499L45.845,36.565L46.545,36.965C46.627,37.012 46.711,37.053 46.795,37.097L47.295,37.355C47.32,37.368 47.345,37.378 47.369,37.39C47.706,37.56 48.045,37.72 48.392,37.875C48.466,37.908 48.542,37.938 48.618,37.97C48.895,38.09 49.175,38.206 49.458,38.317L49.818,38.451C50.073,38.546 50.33,38.637 50.588,38.724L50.936,38.837C51.303,38.954 51.666,39.1 52.049,39.165C71.774,42.493 76.329,27.025 76.329,27.025C72.224,33.045 64.275,35.919 55.791,33.677C55.416,33.577 55.043,33.467 54.674,33.347C54.561,33.312 54.45,33.275 54.338,33.247C54.076,33.16 53.816,33.069 53.557,32.973L53.204,32.839C52.921,32.739 52.641,32.614 52.364,32.494C52.288,32.461 52.212,32.431 52.137,32.396C51.789,32.244 51.446,32.081 51.107,31.909C50.933,31.822 50.762,31.731 50.591,31.641L50.293,31.485C50.073,31.364 49.855,31.239 49.64,31.11L49.484,31.01C49.218,30.851 48.954,30.687 48.694,30.518C48.614,30.466 48.536,30.418 48.456,30.356L47.944,30.011C47.582,29.755 47.227,29.49 46.878,29.217L46.638,29.025C42.925,26.039 39.981,21.959 38.582,17.332C37.115,12.532 37.432,7.147 39.982,2.776M50.63,2.396C48.378,5.772 48.157,9.964 49.73,13.692C51.378,17.649 54.755,20.754 58.696,22.225C58.858,22.287 59.021,22.342 59.196,22.398L59.412,22.468C59.644,22.542 59.875,22.628 60.114,22.674C71.006,24.817 73.96,16.982 74.746,15.829C72.158,19.624 67.809,20.535 62.473,19.216C62.053,19.111 61.588,18.956 61.173,18.81C60.651,18.621 60.139,18.404 59.64,18.161C58.69,17.695 57.79,17.136 56.952,16.49C52.167,12.8 49.2,5.762 52.316,0.03" style="fill:rgb(243,238,228);fill-rule:nonzero;"/>
        <g>
            <path d="M26.576,74.06L25.838,76.676L26.576,74.061L26.576,74.06ZM30.372,79.738L29.559,79.733L30.372,79.738ZM30.172,83.644L25.3,83.662L30.172,83.644ZM31.192,79.744L30.378,79.739L31.192,79.744ZM30.61,83.312L31.46,80.075L30.61,83.312ZM48.54,68.405L46.96,75.838L48.54,68.405ZM44.475,68.405L43.275,73.958L44.475,68.405Z" style="fill:rgb(243,238,228);fill-rule:nonzero;"/>
            <path d="M48.26,68.07L44.88,68.07C44.692,68.07 44.506,68.22 44.466,68.404L42.066,79.511C42.026,79.694 41.84,79.844 41.653,79.844L39.26,79.844C36.892,79.844 37.166,78.207 37.66,75.964L37.675,75.896L37.962,74.366L38.086,73.736L39.178,68.404C39.216,68.22 39.093,68.069 38.905,68.069L35.435,68.069C35.239,68.076 35.07,68.213 35.023,68.403L33.46,75.817C32.6,79.741 32.828,83.483 37.5,83.6L37.635,83.603L44.967,83.603C45.155,83.603 45.34,83.453 45.38,83.269L48.542,68.403C48.582,68.219 48.459,68.069 48.272,68.069L48.26,68.07ZM61.747,79.883C61.935,79.883 62.047,80.033 62.02,80.217L61.692,81.822M61.364,83.428L61.692,81.822L61.364,83.428ZM60.952,83.766L54.722,83.796L60.952,83.766Z" style="fill:rgb(243,238,228);fill-rule:nonzero;"/>
            <path d="M52.704,77.817C52.701,77.641 52.901,77.339 53.089,77.339L52.667,77.332C52.467,79.246 52.704,77.817 52.704,77.817ZM55.03,83.795L54.965,83.795L55.03,83.795ZM61.747,79.883C61.935,79.883 62.047,80.033 62.02,80.217L61.638,82.083M56.63,83.8L56.616,83.8L56.63,83.8ZM55.8,83.794L55.752,83.794L55.8,83.794ZM55.547,83.795L55.467,83.795L55.547,83.795ZM55.3,83.795L55.23,83.795L55.3,83.795ZM55.762,83.794L55.557,83.794L55.762,83.794Z" style="fill:rgb(243,238,228);fill-rule:nonzero;"/>
            <path d="M56.617,83.8L55.801,83.803L56.617,83.8ZM60.954,83.775L56.629,83.801L60.954,83.775ZM61.354,83.428L61.629,82.084L61.354,83.429L61.354,83.428ZM55.478,83.795L55.3,83.795L55.478,83.795ZM54.963,83.795L54.723,83.795L54.963,83.795ZM55.22,83.795L55.02,83.795L55.22,83.795ZM5.76,77.857L6.285,75.529L5.685,78.189L5.615,78.523L5.761,77.855L5.76,77.857ZM12.046,68.032L8.333,68.032C8.137,68.04 7.967,68.175 7.916,68.365L7.212,71.465C7.205,71.489 7.201,71.514 7.201,71.539C7.201,71.681 7.319,71.799 7.461,71.799C7.467,71.799 7.472,71.798 7.478,71.798L11.22,71.798C11.408,71.798 11.594,71.648 11.634,71.465L12.314,68.358C12.354,68.175 12.234,68.025 12.044,68.025L12.046,68.032ZM11.238,73.2L10.138,78.238L11.238,73.2ZM0.452,89.895L3.514,89.919C2.61,89.919 1.117,89.902 0.451,89.894L0.452,89.895Z" style="fill:rgb(243,238,228);fill-rule:nonzero;"/>
            <path d="M6.8,73.2L6.274,75.528L6.8,73.2ZM10.97,72.867L7.227,72.867C7.031,72.875 6.861,73.01 6.81,73.2L5.76,77.856L5.614,78.524L4.614,83.277C4.564,83.499 4.504,83.718 4.434,83.934C4.364,84.15 3.734,86.014 2.56,85.991L1.395,85.969C1.199,85.974 1.029,86.107 0.975,86.295L0.2,89.558C0.192,89.583 0.189,89.608 0.189,89.634C0.189,89.777 0.306,89.894 0.449,89.894C0.453,89.894 0.457,89.894 0.461,89.894L3.524,89.919C6.46,89.919 8.007,88.292 9,83.612L11.25,73.212C11.29,73.029 11.168,72.879 10.98,72.879L10.97,72.867ZM64.132,83.605C63.944,83.605 63.832,83.455 63.862,83.271L66.677,70.085M68.044,83.27L69.184,77.642L68.044,83.27Z" style="fill:rgb(243,238,228);fill-rule:nonzero;"/>
            <path d="M63.903,83.438C63.88,83.346 63.893,83.121 63.933,82.938L65.269,76.678L63.861,83.271C63.821,83.455 63.943,83.605 64.131,83.605L64.473,83.605C64.285,83.605 63.925,83.53 63.903,83.438ZM67.823,83.53C67.721,83.57 67.483,83.605 67.295,83.605L67.637,83.605C67.832,83.597 68,83.46 68.047,83.27L68.115,82.936C68.078,83.12 67.915,83.489 67.815,83.53L67.823,83.53ZM68.613,80.456L69.116,77.972L68.613,80.456ZM79.721,70.968L79.876,71.608C79.919,71.791 79.8,71.94 79.613,71.941" style="fill:rgb(243,238,228);fill-rule:nonzero;"/>
            <path d="M68.112,82.936L68.612,80.456L68.112,82.936ZM79.568,70.3L79.721,70.956L79.568,70.3ZM69.116,77.972L69.254,77.308L69.791,74.793L69.183,77.641L69.116,77.971L69.116,77.972ZM66.723,69.868L66.606,70.418L65.27,76.678L66.678,70.085L66.723,69.869L66.723,69.868Z" style="fill:rgb(243,238,228);fill-rule:nonzero;"/>
            <path d="M79.877,71.608L79.722,70.968L79.492,69.968C79.188,68.788 78.296,68.105 76.358,68.105L67.438,68.099C67.242,68.106 67.073,68.243 67.026,68.433L66.888,69.086L66.688,70.073L63.944,82.926C63.904,83.11 63.891,83.326 63.914,83.426C63.937,83.526 64.297,83.593 64.484,83.593L67.304,83.593C67.492,83.593 67.729,83.559 67.832,83.518C67.935,83.477 68.086,83.118 68.132,82.924L69.202,77.63L70.347,72.266C70.387,72.083 70.572,71.934 70.759,71.933L79.632,71.929C79.819,71.929 79.938,71.779 79.895,71.596L79.877,71.608ZM91.3,65.815L90.617,65.818L87.777,65.818C87.567,65.831 87.372,65.933 87.243,66.1L80.963,75.3C80.857,75.455 80.736,75.432 80.693,75.25L80.231,73.223C80.18,73.033 80.01,72.898 79.814,72.89L75.777,72.89C75.589,72.89 75.477,73.037 75.529,73.218L77.329,79.556C77.381,79.736 77.384,80.033 77.339,80.216L76.539,83.283C76.53,83.309 76.525,83.337 76.525,83.365C76.525,83.502 76.638,83.615 76.775,83.615C76.782,83.615 76.789,83.615 76.796,83.614L80.796,83.614C80.984,83.614 81.176,83.464 81.222,83.284L82.022,80.217C82.085,80.001 82.183,79.797 82.312,79.613L92.518,66.08C92.631,65.93 92.57,65.808 92.382,65.81L91.312,65.817L91.3,65.815ZM59.224,73.752C59.2,73.952 59.012,74.102 58.824,74.102L53.704,74.102C53.527,74.102 53.437,73.982 53.464,73.832L53.468,73.805L53.491,73.718C53.991,72.418 54.976,71.565 56.847,71.565C58.954,71.565 59.365,72.595 59.222,73.752L59.224,73.752ZM57.722,67.844C51.152,67.844 49.595,71.832 48.722,75.857C47.848,79.96 47.924,83.797 54.722,83.797L55.8,83.797L56.63,83.794L60.956,83.768C61.15,83.759 61.317,83.622 61.363,83.433L62.02,80.221C62.058,80.037 61.935,79.887 61.747,79.887L55.635,79.887C53.205,79.887 52.482,79.241 52.748,77.342L62.518,77.342C62.678,77.339 62.823,77.242 62.88,77.09C62.89,77.063 62.9,77.034 62.904,77.005C64.354,71.535 63.938,67.848 57.724,67.848L57.722,67.844ZM26.668,73.73L26.576,74.057C26.576,74.058 25.838,76.673 25.838,76.673L25.1,79.287C25.037,79.475 24.864,79.606 24.666,79.615L20.76,79.615C17.798,79.615 17.077,77.298 17.798,73.881C18.518,70.386 19.933,68.213 22.848,67.993C26.832,67.693 27.628,70.495 26.668,73.729L26.668,73.73ZM29.346,79.415C29.346,79.415 31.186,74.945 31.606,72.362C32.176,68.905 30.446,63.892 23.761,63.892C17.114,63.892 14.228,68.678 13.127,73.892C12.027,79.132 13.469,83.728 20.077,83.692L30.163,83.655C30.361,83.646 30.532,83.512 30.59,83.323L31.44,80.085C31.449,80.058 31.454,80.03 31.454,80.002C31.454,79.865 31.341,79.752 31.204,79.752C31.198,79.752 31.191,79.753 31.185,79.753L29.558,79.743C29.398,79.742 29.308,79.639 29.326,79.503C29.33,79.478 29.336,79.453 29.346,79.427L29.346,79.415Z" style="fill:rgb(243,238,228);fill-rule:nonzero;"/>
            <path d="M62.25,76.424C62.25,76.548 62.15,76.648 62.026,76.648C61.902,76.648 61.802,76.548 61.802,76.424C61.802,76.3 61.902,76.2 62.026,76.2C62.15,76.2 62.25,76.3 62.25,76.424Z" style="fill:rgb(243,238,228);fill-rule:nonzero;"/>
        </g>
    </g>
</svg>
