<?xml version="1.0" encoding="UTF-8" standalone="no"?>
<!DOCTYPE svg PUBLIC "-//W3C//DTD SVG 1.1//EN" "http://www.w3.org/Graphics/SVG/1.1/DTD/svg11.dtd">
<svg width="100%" height="100%" viewBox="0 0 800 800" version="1.1" xmlns="http://www.w3.org/2000/svg" xmlns:xlink="http://www.w3.org/1999/xlink" xml:space="preserve" xmlns:serif="http://www.serif.com/" style="fill-rule:evenodd;clip-rule:evenodd;stroke-linejoin:round;stroke-miterlimit:2;">
    <path d="M400,0C620.766,0 800,179.234 800,400C800,620.766 620.766,800 400,800C179.234,800 0,620.766 0,400C0,179.234 179.234,0 400,0ZM506.922,351.125C481.656,239.617 421.945,202.953 415.516,188.945C408.484,179.063 401.359,161.484 401.359,161.484C401.242,161.188 401.055,160.664 400.836,160.156C400.109,170.039 399.734,173.852 390.391,183.82C375.922,195.133 301.688,257.422 295.648,384.109C290.016,502.266 381,572.672 393.305,581.648L394.703,582.641L394.703,582.555C394.781,583.148 398.609,610.68 401.297,639.852L410.938,639.852C413.199,619.231 416.59,598.75 421.094,578.5L421.875,577.992C427.379,574.046 432.627,569.753 437.586,565.141L438.148,564.633C464.305,540.469 511.328,484.578 510.867,395.469C510.77,380.604 509.45,365.773 506.922,351.125ZM400.273,514.938C400.273,514.938 400.273,349.219 405.742,349.25C410.008,349.25 415.531,563.008 415.531,563.008C407.938,562.094 400.273,527.828 400.273,514.938Z" style="fill:rgb(243,238,228);"/>
</svg>
