<?xml version="1.0" encoding="UTF-8" standalone="no"?>
<!DOCTYPE svg PUBLIC "-//W3C//DTD SVG 1.1//EN" "http://www.w3.org/Graphics/SVG/1.1/DTD/svg11.dtd">
<svg width="100%" height="100%" viewBox="0 0 256 257" version="1.1" xmlns="http://www.w3.org/2000/svg" xmlns:xlink="http://www.w3.org/1999/xlink" xml:space="preserve" xmlns:serif="http://www.serif.com/" style="fill-rule:evenodd;clip-rule:evenodd;stroke-linejoin:round;stroke-miterlimit:2;">
    <g>
        <path d="M128,0.827C198.645,0.827 256,58.182 256,128.827C256,199.472 198.645,256.827 128,256.827C57.355,256.827 0,199.472 0,128.827C0,58.182 57.355,0.827 128,0.827ZM183.706,48.124C170.72,48.577 159.386,55.733 150.949,65.634C141.607,76.489 135.392,89.364 130.914,102.506C122.904,95.941 116.724,87.442 103.873,83.736C93.94,80.884 83.507,82.062 73.913,89.21C69.368,92.605 66.237,97.737 64.748,102.561C60.893,115.098 68.801,126.255 72.393,130.261L80.246,138.677C81.865,140.327 85.764,144.632 83.858,150.804C81.798,157.515 73.708,161.859 65.41,159.299C61.704,158.169 56.379,155.408 57.572,151.52C58.065,149.929 59.203,148.74 59.813,147.365C60.373,146.184 60.64,145.298 60.81,144.778C62.326,139.827 60.255,133.388 54.953,131.753C50.007,130.237 44.946,131.438 42.984,137.807C40.759,145.042 44.221,158.173 62.767,163.891C84.496,170.567 102.877,158.736 105.484,143.305C107.126,133.64 102.762,126.46 94.767,117.224L88.253,110.021C84.307,106.079 82.952,99.36 87.036,94.196C90.482,89.84 95.39,87.981 103.428,90.167C115.161,93.353 120.391,101.494 129.119,108.06C125.515,119.879 123.16,131.742 121.029,142.379L119.729,150.311C113.491,183.032 108.729,200.999 96.354,211.314C93.861,213.087 90.297,215.741 84.925,215.926C82.109,216.013 81.199,214.075 81.16,213.232C81.093,211.255 82.759,210.349 83.866,209.459C85.52,208.557 88.021,207.061 87.851,202.268C87.67,196.604 82.979,191.693 76.197,191.917C71.117,192.091 63.374,196.872 63.665,205.623C63.968,214.662 72.393,221.436 85.094,221.007C91.884,220.774 107.047,218.01 121.99,200.247C139.382,179.885 144.246,156.542 147.905,139.457L151.989,116.901C154.258,117.173 156.684,117.354 159.323,117.417C180.984,117.874 191.819,106.654 191.98,98.493C192.087,93.554 188.739,88.694 184.052,88.804C180.697,88.899 176.482,91.132 175.47,95.772C174.482,100.324 182.363,104.432 176.203,108.422C171.827,111.254 163.982,113.25 152.934,111.628L154.943,100.525C159.043,79.47 164.1,53.571 183.284,52.941C184.682,52.87 189.798,53.004 189.917,56.387C189.952,57.517 189.672,57.805 188.349,60.392C187.002,62.409 186.494,64.126 186.557,66.099C186.742,71.475 190.83,75.008 196.742,74.795C204.658,74.539 206.935,66.832 206.805,62.874C206.486,53.575 196.683,47.699 183.706,48.124Z" style="fill:rgb(243,238,228);"/>
    </g>
</svg>
