<?xml version="1.0" encoding="UTF-8" standalone="no"?>
<!DOCTYPE svg PUBLIC "-//W3C//DTD SVG 1.1//EN" "http://www.w3.org/Graphics/SVG/1.1/DTD/svg11.dtd">
<svg width="100%" height="100%" viewBox="0 0 1200 600" version="1.1" xmlns="http://www.w3.org/2000/svg" xmlns:xlink="http://www.w3.org/1999/xlink" xml:space="preserve" xmlns:serif="http://www.serif.com/" style="fill-rule:evenodd;clip-rule:evenodd;stroke-linejoin:round;stroke-miterlimit:2;">
    <g>
        <clipPath id="_clip1">
            <rect x="0" y="0" width="1200" height="600"/>
        </clipPath>
        <g clip-path="url(#_clip1)">
            <path d="M0,600C0,600 0,600 0,600ZM700,417.082L700,600L500,600L1065.84,600L700,417.082ZM500,600L134.164,600L500,417.082L500,600ZM265.836,400L0,400L0,200L265.836,200L0,67.082L0,532.918L265.836,400ZM1200,532.918L934.164,400L1200,400L1200,532.918ZM1200,200L934.164,200L1200,67.082L1200,200ZM500,182.918L134.164,0L500,0L500,182.918ZM1065.84,0L700,182.918L700,0L1065.84,0Z" style="fill:rgb(243,238,228);fill-rule:nonzero;"/>
            <clipPath id="_clip2">
                <path d="M600,300L1200,300L1200,600L600,300ZM600,300L600,600L0,600L600,300ZM600,300L0,300L0,0L600,300ZM600,300L600,0L1200,0L600,300Z"/>
            </clipPath>
            <g clip-path="url(#_clip2)">
                <path d="M0,0L1200,600M1200,0L0,600" style="fill-rule:nonzero;"/>
            </g>
            <path d="M889.443,400L710.557,400L1182.11,635.777L1217.89,564.223L889.443,400ZM310.557,400L-17.889,564.223L17.889,635.777L489.443,400L310.557,400ZM889.443,200L1217.89,35.777L1182.11,-35.777L710.557,200L889.443,200ZM489.443,200L17.889,-35.777L-17.889,35.777L310.557,200L489.443,200Z" style="fill:rgb(248,245,239);"/>
            <path d="M540,240L0,240L0,360L540,360L540,600L660,600L660,360L1200,360L1200,240L660,240L660,0L540,-0L540,240Z" style="fill:rgb(248,245,239);"/>
        </g>
    </g>
</svg>
