<?xml version="1.0" encoding="UTF-8" standalone="no"?>
<!DOCTYPE svg PUBLIC "-//W3C//DTD SVG 1.1//EN" "http://www.w3.org/Graphics/SVG/1.1/DTD/svg11.dtd">
<svg width="100%" height="100%" viewBox="0 0 317 318" version="1.1" xmlns="http://www.w3.org/2000/svg" xmlns:xlink="http://www.w3.org/1999/xlink" xml:space="preserve" xmlns:serif="http://www.serif.com/" style="fill-rule:evenodd;clip-rule:evenodd;stroke-linejoin:round;stroke-miterlimit:2;">
    <g transform="matrix(2.44843,0,0,2.44844,9.4049,9.84158)">
        <g id="Plan-de-travail2" serif:id="Plan de travail2">
            <g>
                <path d="M8.7,61.3C8.7,82.1 20.8,100.1 38.3,108.6L13.3,39.9C10.3,46.4 8.7,53.6 8.7,61.3Z" style="fill:rgb(243,238,228);fill-rule:nonzero;"/>
                <path d="M96.7,58.6C96.7,52.1 94.4,47.6 92.4,44.1C89.7,39.8 87.2,36.1 87.2,31.8C87.2,27 90.9,22.5 96,22.5L96.7,22.5C87.4,13.9 74.9,8.7 61.3,8.7C42.9,8.7 26.8,18.1 17.4,32.4C18.6,32.4 19.8,32.5 20.8,32.5C26.3,32.5 34.8,31.8 34.8,31.8C37.6,31.6 38,35.8 35.1,36.1C35.1,36.1 32.3,36.4 29.1,36.6L48.2,93.5L59.7,59L51.5,36.6C48.7,36.4 46,36.1 46,36.1C43.2,35.9 43.5,31.6 46.3,31.8C46.3,31.8 55,32.5 60.1,32.5C65.6,32.5 74.1,31.8 74.1,31.8C76.9,31.6 77.3,35.8 74.4,36.1C74.4,36.1 71.5,36.4 68.4,36.6L87.4,93.1L92.6,75.6C95,68.3 96.7,63.1 96.7,58.6Z" style="fill:rgb(243,238,228);fill-rule:nonzero;"/>
                <path d="M62.2,65.9L46.4,111.7C51.1,113.1 56.1,113.8 61.2,113.8C67.3,113.8 73.2,112.7 78.7,110.8C78.6,110.6 78.4,110.3 78.3,110.1L62.2,65.9Z" style="fill:rgb(243,238,228);fill-rule:nonzero;"/>
                <path d="M107.4,36C107.6,37.7 107.8,39.5 107.8,41.4C107.8,46.7 106.8,52.7 103.8,60.2L87.7,106.6C103.3,97.5 113.8,80.6 113.8,61.2C113.8,52.1 111.5,43.5 107.4,36Z" style="fill:rgb(243,238,228);fill-rule:nonzero;"/>
                <path d="M61.3,0C27.5,0 0,27.5 0,61.3C0,95.1 27.5,122.6 61.3,122.6C95.1,122.6 122.6,95.1 122.6,61.3C122.5,27.5 95,0 61.3,0ZM61.3,119.7C29,119.7 2.8,93.5 2.8,61.3C2.8,29 29,2.8 61.3,2.8C93.5,2.8 119.8,29 119.8,61.3C119.7,93.5 93.5,119.7 61.3,119.7Z" style="fill:rgb(243,238,228);fill-rule:nonzero;"/>
            </g>
        </g>
    </g>
</svg>
