<?xml version="1.0" encoding="UTF-8" standalone="no"?>
<!DOCTYPE svg PUBLIC "-//W3C//DTD SVG 1.1//EN" "http://www.w3.org/Graphics/SVG/1.1/DTD/svg11.dtd">
<svg width="100%" height="100%" viewBox="0 0 615 875" version="1.1" xmlns="http://www.w3.org/2000/svg" xmlns:xlink="http://www.w3.org/1999/xlink" xml:space="preserve" xmlns:serif="http://www.serif.com/" style="fill-rule:evenodd;clip-rule:evenodd;stroke-linecap:round;stroke-linejoin:round;stroke-miterlimit:1.5;">
    
    <style>
        @font-face {
        font-family: CaviarDreams;
        src: url(".././fonts/CaviarDreams_Bold.ttf");
        }

        .bulle1:hover,.bulle2:hover,.bulle3:hover {
            opacity: 0;
            transition-timing-function: ease;
            transition-duration: 0.5s;
        }

        .bulle1,.bulle2,.bulle3 {
            transition-timing-function: ease;
            transition-duration: 0.5s;
        }

        .bac {
            opacity: 0;
            transition-timing-function: ease;
            transition-duration: 0.5s;
        }

        .bac:hover {
            opacity: 1;
            transition-timing-function: ease;
            transition-duration: 0.5s;
        }
    </style>
    
    <g transform="matrix(1.13909,0,0,1.13909,-45.0191,-66.6516)">
        <circle cx="303.039" cy="562.314" r="19.136" style="fill:rgb(214,182,183);stroke:rgb(64,42,50);stroke-width:5.32px;"/>
    </g>
    <g id="bac" transform="matrix(1.13909,0,0,1.13909,-49.6302,-59.9445)" class="bac">
        <g opacity="1">
            <g transform="matrix(1,0,0,1,4.04807,-5.88811)">
                <circle cx="303.039" cy="562.314" r="19.136" style="fill:rgb(189,79,82);stroke:rgb(64,42,50);stroke-width:5.32px;"/>
            </g>
            <g transform="matrix(1,0,0,1,-20.6083,19.1363)">
                <g transform="matrix(1,0,0,1,361.639,530.502)">
                    <text x="0px" y="0px" style="font-family:'CaviarDreams', 'Caviar Dreams', sans-serif;font-size:29.167px;fill:rgb(64,42,50);">Bac S SVT</text>
                </g>
                <g>
                    <g transform="matrix(1,0,0,1,361.639,559.669)">
                        <text x="0px" y="0px" style="font-family:'CaviarDreams', 'Caviar Dreams', sans-serif;font-size:29.167px;fill:rgb(64,42,50);">mention</text>
                    </g>
                    <g transform="matrix(1,0,0,1,472.082,559.669)">
                        <text x="0px" y="0px" style="font-family:'CaviarDreams', 'Caviar Dreams', sans-serif;font-size:29.167px;fill:rgb(64,42,50);">T<tspan x="13.601px 22.132px " y="0px 0px ">rè</tspan>s Bien</text>
                    </g>
                </g>
            </g>
        </g>
    </g>
    <g id="bulle1_hover" transform="matrix(1.13909,0,0,1.13909,-49.6302,-59.9445)">
        <g transform="matrix(0.745455,0,0,0.725,93.2558,203.554)">
            <ellipse cx="286.846" cy="667.932" rx="202.404" ry="88.322" style="fill:rgb(189,79,82);fill-opacity:0.7;stroke:rgb(64,42,50);stroke-width:7.24px;"/>
        </g>
        <g transform="matrix(0.877656,0.0204832,-0.0204832,0.877656,37.3032,102.821)">
            <g transform="matrix(0.973564,-0.228416,0.228416,0.973564,236.91,635.426)">
                <text x="0px" y="0px" style="font-family:'CaviarDreams', 'Caviar Dreams', sans-serif;font-size:25px;fill:rgb(64,42,50);">L</text>
            </g>
            <g transform="matrix(0.98013,-0.198356,0.198356,0.98013,246.884,633.055)">
                <text x="0px" y="0px" style="font-family:'CaviarDreams', 'Caviar Dreams', sans-serif;font-size:25px;fill:rgb(64,42,50);">y</text>
            </g>
            <g transform="matrix(0.98679,-0.162004,0.162004,0.98679,258.875,630.611)">
                <text x="0px" y="0px" style="font-family:'CaviarDreams', 'Caviar Dreams', sans-serif;font-size:25px;fill:rgb(64,42,50);">c</text>
            </g>
            <g transform="matrix(0.992126,-0.125244,0.125244,0.992126,273.081,628.283)">
                <text x="0px" y="0px" style="font-family:'CaviarDreams', 'Caviar Dreams', sans-serif;font-size:25px;fill:rgb(64,42,50);">é</text>
            </g>
            <g transform="matrix(0.995897,-0.0904958,0.0904958,0.995897,287.335,626.486)">
                <text x="0px" y="0px" style="font-family:'CaviarDreams', 'Caviar Dreams', sans-serif;font-size:25px;fill:rgb(64,42,50);">e</text>
            </g>
            <g transform="matrix(0.999342,-0.0362809,0.0362809,0.999342,310.253,624.631)">
                <text x="0px" y="0px" style="font-family:'CaviarDreams', 'Caviar Dreams', sans-serif;font-size:25px;fill:rgb(64,42,50);">D</text>
            </g>
            <g transform="matrix(0.999997,-0.0026096,0.0026096,0.999997,324.904,624.086)">
                <text x="0px" y="0px" style="font-family:'CaviarDreams', 'Caviar Dreams', sans-serif;font-size:25px;fill:rgb(64,42,50);">o</text>
            </g>
            <g transform="matrix(0.999537,0.0304263,-0.0304263,0.999537,340.49,624.063)">
                <text x="0px" y="0px" style="font-family:'CaviarDreams', 'Caviar Dreams', sans-serif;font-size:25px;fill:rgb(64,42,50);">u</text>
            </g>
            <g transform="matrix(0.997885,0.0650074,-0.0650074,0.997885,353.916,624.446)">
                <text x="0px" y="0px" style="font-family:'CaviarDreams', 'Caviar Dreams', sans-serif;font-size:25px;fill:rgb(64,42,50);">a</text>
            </g>
            <g transform="matrix(0.99488,0.101066,-0.101066,0.99488,370.447,625.555)">
                <text x="0px" y="0px" style="font-family:'CaviarDreams', 'Caviar Dreams', sans-serif;font-size:25px;fill:rgb(64,42,50);">n</text>
            </g>
            <g transform="matrix(0.992263,0.124155,-0.124155,0.992263,383.486,626.925)">
                <text x="0px" y="0px" style="font-family:'CaviarDreams', 'Caviar Dreams', sans-serif;font-size:25px;fill:rgb(64,42,50);">i</text>
            </g>
            <g transform="matrix(0.988728,0.14972,-0.14972,0.988728,388.687,627.515)">
                <text x="0px" y="0px" style="font-family:'CaviarDreams', 'Caviar Dreams', sans-serif;font-size:25px;fill:rgb(64,42,50);">e</text>
            </g>
            <g transform="matrix(0.983447,0.181195,-0.181195,0.983447,402.883,629.71)">
                <text x="0px" y="0px" style="font-family:'CaviarDreams', 'Caviar Dreams', sans-serif;font-size:25px;fill:rgb(64,42,50);">r</text>
            </g>
        </g>
        <g transform="matrix(0.877613,0.0222615,-0.0222615,0.877613,46.2859,131.959)">
            <g transform="matrix(0.970065,-0.242846,0.242846,0.970065,220.34,637.651)">
                <text x="0px" y="0px" style="font-family:'CaviarDreams', 'Caviar Dreams', sans-serif;font-size:25px;fill:rgb(64,42,50);">R</text>
            </g>
            <g transform="matrix(0.97911,-0.203332,0.203332,0.97911,232.797,634.493)">
                <text x="0px" y="0px" style="font-family:'CaviarDreams', 'Caviar Dreams', sans-serif;font-size:25px;fill:rgb(64,42,50);">o</text>
            </g>
            <g transform="matrix(0.986242,-0.165311,0.165311,0.986242,248.07,631.348)">
                <text x="0px" y="0px" style="font-family:'CaviarDreams', 'Caviar Dreams', sans-serif;font-size:25px;fill:rgb(64,42,50);">u</text>
            </g>
            <g transform="matrix(0.990532,-0.137284,0.137284,0.990532,261.317,629.155)">
                <text x="0px" y="0px" style="font-family:'CaviarDreams', 'Caviar Dreams', sans-serif;font-size:25px;fill:rgb(64,42,50);">s</text>
            </g>
            <g transform="matrix(0.993353,-0.11511,0.11511,0.993353,271.021,627.81)">
                <text x="0px" y="0px" style="font-family:'CaviarDreams', 'Caviar Dreams', sans-serif;font-size:25px;fill:rgb(64,42,50);">s</text>
            </g>
            <g transform="matrix(0.996013,-0.0892035,0.0892035,0.996013,280.728,626.655)">
                <text x="0px" y="0px" style="font-family:'CaviarDreams', 'Caviar Dreams', sans-serif;font-size:25px;fill:rgb(64,42,50);">e</text>
            </g>
            <g transform="matrix(0.998344,-0.0575342,0.0575342,0.998344,295.038,625.36)">
                <text x="0px" y="0px" style="font-family:'CaviarDreams', 'Caviar Dreams', sans-serif;font-size:25px;fill:rgb(64,42,50);">a</text>
            </g>
            <g transform="matrix(0.999632,-0.0271171,0.0271171,0.999632,311.63,624.432)">
                <text x="0px" y="0px" style="font-family:'CaviarDreams', 'Caviar Dreams', sans-serif;font-size:25px;fill:rgb(64,42,50);">u</text>
            </g>
            <g transform="matrix(0.99993,0.0117904,-0.0117904,0.99993,333.655,624.049)">
                <text x="0px" y="0px" style="font-family:'CaviarDreams', 'Caviar Dreams', sans-serif;font-size:25px;fill:rgb(64,42,50);">(</text>
            </g>
            <g transform="matrix(0.999464,0.0327516,-0.0327516,0.999464,342.249,624.13)">
                <text x="0px" y="0px" style="font-family:'CaviarDreams', 'Caviar Dreams', sans-serif;font-size:25px;fill:rgb(64,42,50);">L</text>
            </g>
            <g transform="matrix(0.998259,0.0589759,-0.0589759,0.998259,353.092,624.439)">
                <text x="0px" y="0px" style="font-family:'CaviarDreams', 'Caviar Dreams', sans-serif;font-size:25px;fill:rgb(64,42,50);">a</text>
            </g>
            <g transform="matrix(0.995878,0.0907003,-0.0907003,0.995878,369.651,625.447)">
                <text x="0px" y="0px" style="font-family:'CaviarDreams', 'Caviar Dreams', sans-serif;font-size:25px;fill:rgb(64,42,50);">v</text>
            </g>
            <g transform="matrix(0.992433,0.122786,-0.122786,0.992433,382.222,626.556)">
                <text x="0px" y="0px" style="font-family:'CaviarDreams', 'Caviar Dreams', sans-serif;font-size:25px;fill:rgb(64,42,50);">a</text>
            </g>
            <g transform="matrix(0.988878,0.148729,-0.148729,0.988878,398.695,628.673)">
                <text x="0px" y="0px" style="font-family:'CaviarDreams', 'Caviar Dreams', sans-serif;font-size:25px;fill:rgb(64,42,50);">l</text>
            </g>
            <g transform="matrix(0.986212,0.165486,-0.165486,0.986212,403.387,629.362)">
                <text x="0px" y="0px" style="font-family:'CaviarDreams', 'Caviar Dreams', sans-serif;font-size:25px;fill:rgb(64,42,50);">)</text>
            </g>
        </g>
        <g transform="matrix(0.877087,-0.0376518,0.0376518,0.877087,9.72594,87.6278)">
            <g transform="matrix(0.873093,0.487554,-0.487554,0.873093,184.386,725.878)">
                <text x="0px" y="0px" style="font-family:'CaviarDreams', 'Caviar Dreams', sans-serif;font-size:20.833px;fill:rgb(64,42,50);">ﬁ</text>
            </g>
            <g transform="matrix(0.897762,0.440481,-0.440481,0.897762,192.896,730.533)">
                <text x="0px" y="0px" style="font-family:'CaviarDreams', 'Caviar Dreams', sans-serif;font-size:20.833px;fill:rgb(64,42,50);">l</text>
            </g>
            <g transform="matrix(0.90975,0.415157,-0.415157,0.90975,196.462,732.284)">
                <text x="0px" y="0px" style="font-family:'CaviarDreams', 'Caviar Dreams', sans-serif;font-size:20.833px;fill:rgb(64,42,50);">i</text>
            </g>
            <g transform="matrix(0.928865,0.370417,-0.370417,0.928865,200.411,734.182)">
                <text x="0px" y="0px" style="font-family:'CaviarDreams', 'Caviar Dreams', sans-serif;font-size:20.833px;fill:rgb(64,42,50);">è</text>
            </g>
            <g transform="matrix(0.945778,0.324815,-0.324815,0.945778,211.571,738.562)">
                <text x="0px" y="0px" style="font-family:'CaviarDreams', 'Caviar Dreams', sans-serif;font-size:20.833px;fill:rgb(64,42,50);">r</text>
            </g>
            <g transform="matrix(0.957299,0.289098,-0.289098,0.957299,217.27,740.585)">
                <text x="0px" y="0px" style="font-family:'CaviarDreams', 'Caviar Dreams', sans-serif;font-size:20.833px;fill:rgb(64,42,50);">e</text>
            </g>
            <g transform="matrix(0.975449,0.220223,-0.220223,0.975449,235.689,745.854)">
                <text x="0px" y="0px" style="font-family:'CaviarDreams', 'Caviar Dreams', sans-serif;font-size:20.833px;fill:rgb(64,42,50);">e</text>
            </g>
            <g transform="matrix(0.982877,0.184264,-0.184264,0.982877,247.378,748.482)">
                <text x="0px" y="0px" style="font-family:'CaviarDreams', 'Caviar Dreams', sans-serif;font-size:20.833px;fill:rgb(64,42,50);">u</text>
            </g>
            <g transform="matrix(0.987443,0.157976,-0.157976,0.987443,258.38,750.515)">
                <text x="0px" y="0px" style="font-family:'CaviarDreams', 'Caviar Dreams', sans-serif;font-size:20.833px;fill:rgb(64,42,50);">r</text>
            </g>
            <g transform="matrix(0.990989,0.133945,-0.133945,0.990989,264.199,751.496)">
                <text x="0px" y="0px" style="font-family:'CaviarDreams', 'Caviar Dreams', sans-serif;font-size:20.833px;fill:rgb(64,42,50);">o</text>
            </g>
            <g transform="matrix(0.995075,0.0991203,-0.0991203,0.995075,277.071,753.243)">
                <text x="0px" y="0px" style="font-family:'CaviarDreams', 'Caviar Dreams', sans-serif;font-size:20.833px;fill:rgb(64,42,50);">p</text>
            </g>
            <g transform="matrix(0.997666,0.06829,-0.06829,0.997666,290.581,754.579)">
                <text x="0px" y="0px" style="font-family:'CaviarDreams', 'Caviar Dreams', sans-serif;font-size:20.833px;fill:rgb(64,42,50);">é</text>
            </g>
            <g transform="matrix(0.999218,0.0395323,-0.0395323,0.999218,302.517,755.396)">
                <text x="0px" y="0px" style="font-family:'CaviarDreams', 'Caviar Dreams', sans-serif;font-size:20.833px;fill:rgb(64,42,50);">e</text>
            </g>
            <g transform="matrix(0.999925,0.0122292,-0.0122292,0.999925,314.489,755.862)">
                <text x="0px" y="0px" style="font-family:'CaviarDreams', 'Caviar Dreams', sans-serif;font-size:20.833px;fill:rgb(64,42,50);">n</text>
            </g>
            <g transform="matrix(0.999903,-0.013908,0.013908,0.999903,325.363,755.996)">
                <text x="0px" y="0px" style="font-family:'CaviarDreams', 'Caviar Dreams', sans-serif;font-size:20.833px;fill:rgb(64,42,50);">n</text>
            </g>
            <g transform="matrix(0.999116,-0.0420365,0.0420365,0.999116,336.286,755.852)">
                <text x="0px" y="0px" style="font-family:'CaviarDreams', 'Caviar Dreams', sans-serif;font-size:20.833px;fill:rgb(64,42,50);">e</text>
            </g>
            <g transform="matrix(0.99826,-0.0589681,0.0589681,0.99826,347.51,755.348)">
                <text x="0px" y="0px" style="font-family:'CaviarDreams', 'Caviar Dreams', sans-serif;font-size:20.833px;fill:rgb(64,42,50);">,</text>
            </g>
            <g transform="matrix(0.99566,-0.0930673,0.0930673,0.99566,357.822,754.66)">
                <text x="0px" y="0px" style="font-family:'CaviarDreams', 'Caviar Dreams', sans-serif;font-size:20.833px;fill:rgb(64,42,50);">s</text>
            </g>
            <g transform="matrix(0.992275,-0.124059,0.124059,0.992275,365.968,753.947)">
                <text x="0px" y="0px" style="font-family:'CaviarDreams', 'Caviar Dreams', sans-serif;font-size:20.833px;fill:rgb(64,42,50);">p</text>
            </g>
            <g transform="matrix(0.986799,-0.161948,0.161948,0.986799,379.435,752.257)">
                <text x="0px" y="0px" style="font-family:'CaviarDreams', 'Caviar Dreams', sans-serif;font-size:20.833px;fill:rgb(64,42,50);">é</text>
            </g>
            <g transform="matrix(0.976798,-0.214165,0.214165,0.976798,398.283,748.879)">
                <text x="0px" y="0px" style="font-family:'CaviarDreams', 'Caviar Dreams', sans-serif;font-size:20.833px;fill:rgb(64,42,50);">I</text>
            </g>
            <g transform="matrix(0.970099,-0.24271,0.24271,0.970099,402.575,747.986)">
                <text x="0px" y="0px" style="font-family:'CaviarDreams', 'Caviar Dreams', sans-serif;font-size:20.833px;fill:rgb(64,42,50);">S</text>
            </g>
            <g transform="matrix(0.955911,-0.293657,0.293657,0.955911,412.856,745.46)">
                <text x="0px" y="0px" style="font-family:'CaviarDreams', 'Caviar Dreams', sans-serif;font-size:20.833px;fill:rgb(64,42,50);">N</text>
            </g>
        </g>
    </g>
    <g id="bulle2_hover" transform="matrix(1.13909,0,0,1.13909,-49.6302,-59.9445)">
        <g transform="matrix(0.745455,0,0,0.725,93.2558,-59.9388)">
            <ellipse cx="286.846" cy="667.932" rx="202.404" ry="88.322" style="fill:rgb(189,79,82);fill-opacity:0.7;stroke:rgb(64,42,50);stroke-width:7.24px;"/>
        </g>
        <g transform="matrix(0.877577,0.0236293,-0.0236293,0.877577,45.7703,77.5125)">
            <g transform="matrix(0.9132,-0.407512,0.407512,0.9132,202.711,384.641)">
                <text x="0px" y="0px" style="font-family:'CaviarDreams', 'Caviar Dreams', sans-serif;font-size:29.167px;fill:rgb(64,42,50);">É</text>
            </g>
            <g transform="matrix(0.943419,-0.331603,0.331603,0.943419,216.693,378.379)">
                <text x="0px" y="0px" style="font-family:'CaviarDreams', 'Caviar Dreams', sans-serif;font-size:29.167px;fill:rgb(64,42,50);">c</text>
            </g>
            <g transform="matrix(0.966192,-0.257823,0.257823,0.966192,232.508,372.81)">
                <text x="0px" y="0px" style="font-family:'CaviarDreams', 'Caviar Dreams', sans-serif;font-size:29.167px;fill:rgb(64,42,50);">o</text>
            </g>
            <g transform="matrix(0.97706,-0.212963,0.212963,0.97706,250.139,368.261)">
                <text x="0px" y="0px" style="font-family:'CaviarDreams', 'Caviar Dreams', sans-serif;font-size:29.167px;fill:rgb(64,42,50);">l</text>
            </g>
            <g transform="matrix(0.98467,-0.174427,0.174427,0.98467,255.525,366.977)">
                <text x="0px" y="0px" style="font-family:'CaviarDreams', 'Caviar Dreams', sans-serif;font-size:29.167px;fill:rgb(64,42,50);">e</text>
            </g>
            <g transform="matrix(0.995901,-0.090447,0.090447,0.995901,282.049,362.708)">
                <text x="0px" y="0px" style="font-family:'CaviarDreams', 'Caviar Dreams', sans-serif;font-size:29.167px;fill:rgb(64,42,50);">d</text>
            </g>
            <g transform="matrix(0.998285,-0.058547,0.058547,0.998285,301.354,361.078)">
                <text x="0px" y="0px" style="font-family:'CaviarDreams', 'Caviar Dreams', sans-serif;font-size:29.167px;fill:rgb(64,42,50);">&apos;</text>
            </g>
            <g transform="matrix(0.998977,-0.0452149,0.0452149,0.998977,306.165,360.791)">
                <text x="0px" y="0px" style="font-family:'CaviarDreams', 'Caviar Dreams', sans-serif;font-size:29.167px;fill:rgb(64,42,50);">i</text>
            </g>
            <g transform="matrix(0.99979,-0.0204747,0.0204747,0.99979,312.29,360.459)">
                <text x="0px" y="0px" style="font-family:'CaviarDreams', 'Caviar Dreams', sans-serif;font-size:29.167px;fill:rgb(64,42,50);">n</text>
            </g>
            <g transform="matrix(0.999663,0.0259608,-0.0259608,0.999663,327.545,360.098)">
                <text x="0px" y="0px" style="font-family:'CaviarDreams', 'Caviar Dreams', sans-serif;font-size:29.167px;fill:rgb(64,42,50);">g</text>
            </g>
            <g transform="matrix(0.996865,0.0791247,-0.0791247,0.996865,346.946,360.635)">
                <text x="0px" y="0px" style="font-family:'CaviarDreams', 'Caviar Dreams', sans-serif;font-size:29.167px;fill:rgb(64,42,50);">é</text>
            </g>
            <g transform="matrix(0.991449,0.130494,-0.130494,0.991449,363.662,361.974)">
                <text x="0px" y="0px" style="font-family:'CaviarDreams', 'Caviar Dreams', sans-serif;font-size:29.167px;fill:rgb(64,42,50);">n</text>
            </g>
            <g transform="matrix(0.985738,0.168286,-0.168286,0.985738,378.786,364.05)">
                <text x="0px" y="0px" style="font-family:'CaviarDreams', 'Caviar Dreams', sans-serif;font-size:29.167px;fill:rgb(64,42,50);">i</text>
            </g>
            <g transform="matrix(0.977156,0.212523,-0.212523,0.977156,384.84,364.957)">
                <text x="0px" y="0px" style="font-family:'CaviarDreams', 'Caviar Dreams', sans-serif;font-size:29.167px;fill:rgb(64,42,50);">e</text>
            </g>
            <g transform="matrix(0.958922,0.283671,-0.283671,0.958922,401.232,368.526)">
                <text x="0px" y="0px" style="font-family:'CaviarDreams', 'Caviar Dreams', sans-serif;font-size:29.167px;fill:rgb(64,42,50);">u</text>
            </g>
            <g transform="matrix(0.937365,0.34835,-0.34835,0.937365,416.226,373.052)">
                <text x="0px" y="0px" style="font-family:'CaviarDreams', 'Caviar Dreams', sans-serif;font-size:29.167px;fill:rgb(64,42,50);">r</text>
            </g>
        </g>
        <g transform="matrix(0.877895,0,0,0.877895,18.2756,31.396)">
            <g transform="matrix(0.987289,0.158935,-0.158935,0.987289,256.362,483.339)">
                <text x="0px" y="0px" style="font-family:'CaviarDreams', 'Caviar Dreams', sans-serif;font-size:29.167px;fill:rgb(64,42,50);">I</text>
            </g>
            <g transform="matrix(0.99121,0.132299,-0.132299,0.99121,262.368,484.389)">
                <text x="0px" y="0px" style="font-family:'CaviarDreams', 'Caviar Dreams', sans-serif;font-size:29.167px;fill:rgb(64,42,50);">N</text>
            </g>
            <g transform="matrix(0.995068,0.0991974,-0.0991974,0.995068,280.893,486.826)">
                <text x="0px" y="0px" style="font-family:'CaviarDreams', 'Caviar Dreams', sans-serif;font-size:29.167px;fill:rgb(64,42,50);">S</text>
            </g>
            <g transform="matrix(0.997668,0.0682595,-0.0682595,0.997668,295.654,488.323)">
                <text x="0px" y="0px" style="font-family:'CaviarDreams', 'Caviar Dreams', sans-serif;font-size:29.167px;fill:rgb(64,42,50);">A</text>
            </g>
            <g transform="matrix(0.999848,0.0174335,-0.0174335,0.999848,324.087,489.993)">
                <text x="0px" y="0px" style="font-family:'CaviarDreams', 'Caviar Dreams', sans-serif;font-size:29.167px;fill:rgb(64,42,50);">R</text>
            </g>
            <g transform="matrix(0.99994,-0.010936,0.010936,0.99994,339.089,490.282)">
                <text x="0px" y="0px" style="font-family:'CaviarDreams', 'Caviar Dreams', sans-serif;font-size:29.167px;fill:rgb(64,42,50);">e</text>
            </g>
            <g transform="matrix(0.99907,-0.043115,0.043115,0.99907,355.868,490.089)">
                <text x="0px" y="0px" style="font-family:'CaviarDreams', 'Caviar Dreams', sans-serif;font-size:29.167px;fill:rgb(64,42,50);">n</text>
            </g>
            <g transform="matrix(0.997084,-0.0763131,0.0763131,0.997084,371.091,489.436)">
                <text x="0px" y="0px" style="font-family:'CaviarDreams', 'Caviar Dreams', sans-serif;font-size:29.167px;fill:rgb(64,42,50);">n</text>
            </g>
            <g transform="matrix(0.993355,-0.115092,0.115092,0.993355,386.295,488.294)">
                <text x="0px" y="0px" style="font-family:'CaviarDreams', 'Caviar Dreams', sans-serif;font-size:29.167px;fill:rgb(64,42,50);">e</text>
            </g>
            <g transform="matrix(0.988063,-0.154049,0.154049,0.988063,402.944,486.32)">
                <text x="0px" y="0px" style="font-family:'CaviarDreams', 'Caviar Dreams', sans-serif;font-size:29.167px;fill:rgb(64,42,50);">s</text>
            </g>
        </g>
    </g>
    <g id="bulle3_hover" transform="matrix(1.13909,0,0,1.13909,-49.6302,-59.9445)">
        <g transform="matrix(0.745455,0,0,0.725,93.2558,-323.431)">
            <ellipse cx="286.846" cy="667.932" rx="202.404" ry="88.322" style="fill:rgb(189,79,82);fill-opacity:0.7;stroke:rgb(64,42,50);stroke-width:7.24px;"/>
        </g>
        <g transform="matrix(0.877895,0,0,0.877895,27.6267,60.8309)">
            <g transform="matrix(0.984931,-0.172947,0.172947,0.984931,249.944,102.418)">
                <text x="0px" y="0px" style="font-family:'CaviarDreams', 'Caviar Dreams', sans-serif;font-size:33.333px;fill:rgb(64,42,50);">B</text>
            </g>
            <g transform="matrix(0.99272,-0.120441,0.120441,0.99272,266.994,99.3489)">
                <text x="0px" y="0px" style="font-family:'CaviarDreams', 'Caviar Dreams', sans-serif;font-size:33.333px;fill:rgb(64,42,50);">U</text>
            </g>
            <g transform="matrix(0.997733,-0.0672911,0.0672911,0.997733,288.777,96.782)">
                <text x="0px" y="0px" style="font-family:'CaviarDreams', 'Caviar Dreams', sans-serif;font-size:33.333px;fill:rgb(64,42,50);">T</text>
            </g>
            <g transform="matrix(0.999567,0.0294282,-0.0294282,0.999567,316.537,95.176)">
                <text x="0px" y="0px" style="font-family:'CaviarDreams', 'Caviar Dreams', sans-serif;font-size:33.333px;fill:rgb(64,42,50);">M</text>
            </g>
            <g transform="matrix(0.993535,0.113523,-0.113523,0.993535,344.31,95.9841)">
                <text x="0px" y="0px" style="font-family:'CaviarDreams', 'Caviar Dreams', sans-serif;font-size:33.333px;fill:rgb(64,42,50);">M</text>
            </g>
            <g transform="matrix(0.985817,0.167824,-0.167824,0.985817,371.859,99.4161)">
                <text x="0px" y="0px" style="font-family:'CaviarDreams', 'Caviar Dreams', sans-serif;font-size:33.333px;fill:rgb(64,42,50);">I</text>
            </g>
        </g>
        <g transform="matrix(0.877895,0,0,0.877895,23.5295,7.05965)">
            <g transform="matrix(0.995362,0.0961961,-0.0961961,0.995362,280.611,218.515)">
                <text x="0px" y="0px" style="font-family:'CaviarDreams', 'Caviar Dreams', sans-serif;font-size:33.333px;fill:rgb(64,42,50);">L</text>
            </g>
            <g transform="matrix(0.998763,0.0497164,-0.0497164,0.998763,294.978,220.013)">
                <text x="0px" y="0px" style="font-family:'CaviarDreams', 'Caviar Dreams', sans-serif;font-size:33.333px;fill:rgb(64,42,50);">a</text>
            </g>
            <g transform="matrix(0.999985,-0.0054054,0.0054054,0.999985,317.075,221.043)">
                <text x="0px" y="0px" style="font-family:'CaviarDreams', 'Caviar Dreams', sans-serif;font-size:33.333px;fill:rgb(64,42,50);">v</text>
            </g>
            <g transform="matrix(0.998249,-0.059147,0.059147,0.998249,333.952,221.024)">
                <text x="0px" y="0px" style="font-family:'CaviarDreams', 'Caviar Dreams', sans-serif;font-size:33.333px;fill:rgb(64,42,50);">a</text>
            </g>
            <g transform="matrix(0.994952,-0.100347,0.100347,0.994952,356.038,219.549)">
                <text x="0px" y="0px" style="font-family:'CaviarDreams', 'Caviar Dreams', sans-serif;font-size:33.333px;fill:rgb(64,42,50);">l</text>
            </g>
        </g>
    </g>
    <g id="schema" transform="matrix(1.13909,0,0,1.13909,-49.6302,-59.9445)">
        <path d="M307.087,623.771L307.087,575.562" style="fill:none;stroke:rgb(64,42,50);stroke-width:5.32px;"/>
        <path d="M307.087,537.29L307.087,488.345" style="fill:none;stroke:rgb(64,42,50);stroke-width:5.32px;"/>
        <path d="M307.087,360.278L307.087,224.852" style="fill:none;stroke:rgb(64,42,50);stroke-width:5.32px;"/>
        <path d="M307.087,755.15L307.087,819.919" style="fill:none;stroke:rgb(64,42,50);stroke-width:5.32px;"/>
        <path d="M307.087,96.786L307.087,52.625" style="fill:none;stroke:rgb(64,42,50);stroke-width:5.32px;"/>
    </g>
    <g transform="matrix(1.13909,0,0,1.13909,140.975,591.294)">
        <text x="0px" y="0px" style="font-family:'CaviarDreams', 'Caviar Dreams', sans-serif;font-size:37.5px;fill:rgb(64,42,50);">2019</text>
    </g>
    <g id="bulle1" class="bulle1">
        <g transform="matrix(0.849139,0,0,0.825839,56.5964,171.921)">
            <ellipse cx="286.846" cy="667.932" rx="202.404" ry="88.322" style="fill:rgb(210,174,175);stroke:rgb(64,42,50);stroke-width:7.24px;"/>
        </g>
        <g transform="matrix(1.13909,0,0,1.13909,171.541,738.849)">
            <text x="0px" y="0px" style="font-family:'CaviarDreams', 'Caviar Dreams', sans-serif;font-size:37.5px;fill:rgb(64,42,50);">2016 - 2019</text>
        </g>
    </g>
    <g id="bulle2" class="bulle2">
        <g transform="matrix(0.849139,0,0,0.825839,56.5964,-128.22)">
            <ellipse cx="286.846" cy="667.932" rx="202.404" ry="88.322" style="fill:rgb(218,190,190);stroke:rgb(64,42,50);stroke-width:7.24px;"/>
        </g>
        <g transform="matrix(1.13909,0,0,1.13909,176.338,437.846)">
            <text x="0px" y="0px" style="font-family:'CaviarDreams', 'Caviar Dreams', sans-serif;font-size:37.5px;fill:rgb(64,42,50);">2019 - 2021</text>
        </g>
    </g>
    <g id="bulle3" class="bulle3">
        <g transform="matrix(0.849139,0,0,0.825839,56.5964,-428.362)">
            <ellipse cx="286.846" cy="667.932" rx="202.404" ry="88.322" style="fill:rgb(225,204,203);stroke:rgb(64,42,50);stroke-width:7.24px;"/>
        </g>
        <g transform="matrix(1.13909,0,0,1.13909,202.796,158.623)">
            <text x="0px" y="0px" style="font-family:'CaviarDreams', 'Caviar Dreams', sans-serif;font-size:37.5px;fill:rgb(64,42,50);">(en cour<tspan x="143.408px 158.093px " y="0px 0px ">s)</tspan></text>
        </g>
        <g transform="matrix(1.13909,0,0,1.13909,248.026,115.907)">
            <text x="0px" y="0px" style="font-family:'CaviarDreams', 'Caviar Dreams', sans-serif;font-size:37.5px;fill:rgb(64,42,50);">2021</text>
        </g>
    </g>
</svg>
