<?xml version="1.0" encoding="UTF-8" standalone="no"?>
<!DOCTYPE svg PUBLIC "-//W3C//DTD SVG 1.1//EN" "http://www.w3.org/Graphics/SVG/1.1/DTD/svg11.dtd">
<svg width="100%" height="100%" viewBox="0 0 1624 1618" version="1.1" xmlns="http://www.w3.org/2000/svg" xmlns:xlink="http://www.w3.org/1999/xlink" xml:space="preserve" xmlns:serif="http://www.serif.com/" style="fill-rule:evenodd;clip-rule:evenodd;stroke-linejoin:round;stroke-miterlimit:2;">
    <g id="Plan-de-travail1" serif:id="Plan de travail1" transform="matrix(1.27014,0,0,1.21195,-185.379,-570.364)">
        <rect x="145.951" y="470.615" width="1278.19" height="1334.78" style="fill:none;"/>
        <g transform="matrix(0.883469,0,0,0.925887,-24.5278,239.918)">
            <circle cx="905.897" cy="970.492" r="652.104" style="fill:rgb(250,162,0);"/>
        </g>
        <g id="tete" transform="matrix(0.787312,0,0,0.825114,218.611,178.38)">
            <g transform="matrix(-1,0,0,1,2006.74,4.79248)">
                <path d="M1004.25,1484.3C1012.93,1566.17 1014.45,1633.14 1001.16,1691.04" style="fill:rgb(20,20,20);"/>
                <path d="M1008.18,1483.89C1010.72,1501.83 1013.04,1519.02 1014.6,1535.63C1015.6,1546.31 1016.3,1556.73 1016.73,1566.91C1017.02,1574.01 1017.14,1580.99 1017.14,1587.85C1017.17,1625.99 1013.7,1660.45 1006.03,1692.16C1005.41,1694.85 1002.73,1696.53 1000.04,1695.91C997.353,1695.3 995.672,1692.61 996.289,1689.93C1001.75,1664.65 1004.23,1637.68 1004.72,1608.51C1004.91,1596.54 1004.72,1584.21 1004.37,1571.47C1004.15,1563.39 1003.86,1555.15 1003.52,1546.73C1003.12,1536.66 1002.65,1526.35 1002.09,1515.75C1001.56,1505.65 1001.03,1495.32 1000.33,1484.72C1000.1,1482.55 1001.67,1480.6 1003.84,1480.37C1006.01,1480.14 1007.95,1481.72 1008.18,1483.89Z"/>
            </g>
            <path d="M637.801,1688.09C637.845,1690.52 637.598,1692.86 637.506,1695.33C637.418,1697.7 637.259,1700.05 637.197,1702.45C637.149,1704.34 637.198,1706.24 637.192,1708.14C637.183,1711.03 637.22,1713.9 637.08,1716.79C636.876,1721.03 636.571,1725.18 635.919,1729.29C635.517,1730.72 636.356,1732.22 637.791,1732.62C639.226,1733.02 640.718,1732.18 641.119,1730.74C643.124,1725.81 644.827,1720.74 646.007,1715.43C646.795,1711.89 647.385,1708.31 647.559,1704.71C647.618,1703.49 647.585,1702.28 647.504,1701.08C647.381,1699.24 647.184,1697.44 646.826,1695.65C646.212,1692.59 645.314,1689.75 644.272,1686.88C643.937,1685.09 642.215,1683.91 640.429,1684.25C638.643,1684.59 637.465,1686.31 637.801,1688.09Z" style="fill:rgb(20,20,20);"/>
            <path d="M484.681,918.63C446.2,950.735 418.213,997.368 400.576,1044.45C378.59,1103.15 372.848,1162.52 382.01,1195.45C388.654,1219.19 391.211,1237.39 391.931,1252.81C393.005,1275.8 390.073,1292.71 390.342,1312.29C391.62,1392.87 401.62,1451.48 417.479,1496.79C442.836,1569.24 482.888,1607.92 525.704,1648.17C538.796,1660.47 547.739,1670.89 560.246,1678.73C568.162,1683.69 577.455,1687.67 589.97,1690.41C608.718,1694.52 627.704,1695.44 646.556,1693.7C665.142,1691.99 683.597,1687.71 701.552,1681.4C764.017,1659.42 818.879,1637.75 866.016,1612.2C903.159,1592.07 935.523,1569.54 963.073,1542.61C984.087,1522.07 1001.85,1498.45 1017.96,1472.7C1040.31,1436.95 1059.5,1397.08 1079.96,1355.67C1080.81,1353.97 1080.12,1351.89 1078.41,1351.04C1076.71,1350.19 1074.63,1350.88 1073.78,1352.59C1053.07,1393.56 1033.64,1433.03 1011.1,1468.38C995.142,1493.4 977.617,1516.35 956.91,1536.25C929.729,1562.37 897.851,1584.11 861.349,1603.51C814.439,1628.43 759.914,1649.47 697.855,1670.77C680.756,1676.64 663.197,1680.6 645.529,1682.1C627.872,1683.6 610.106,1682.64 592.585,1678.67C581.714,1676.22 573.635,1672.75 566.776,1668.38C554.957,1660.87 546.63,1650.83 534.275,1639.1C493.038,1599.99 454.466,1562.5 430.021,1492.41C414.566,1448.1 404.65,1390.85 403.232,1312.07C402.835,1292.37 405.667,1275.32 404.423,1252.18C403.554,1236.03 400.752,1216.98 393.6,1192.16C384.527,1160.85 390.076,1104.27 410.367,1048.05C426.899,1002.25 453.267,956.652 490.12,925.061C491.895,923.56 492.117,920.901 490.616,919.126C489.115,917.351 486.456,917.129 484.681,918.63Z" style="fill:rgb(20,20,20);"/>
            <path d="M1131.91,1135.1C1160.67,1122.9 1187.33,1129.93 1202.73,1151.19C1209.69,1160.82 1214.3,1173.28 1215.94,1188.12C1217.28,1200.21 1216.7,1213.84 1213.62,1228.78C1203.01,1283.67 1175.36,1319.57 1146.57,1338.12C1115.12,1358.4 1082.31,1358.31 1070.67,1337.62C1069.76,1335.94 1067.66,1335.32 1065.99,1336.23C1064.31,1337.13 1063.69,1339.23 1064.6,1340.91C1077.21,1365.15 1114.94,1368.81 1151.81,1346.51C1183.15,1327.55 1213.75,1289.85 1226.52,1231.44C1229.91,1214.96 1230.64,1199.91 1229.02,1186.6C1226.91,1169.29 1221.02,1154.83 1212.51,1143.86C1193.54,1119.39 1161.7,1111.54 1128.45,1127.42C1126.33,1128.37 1125.39,1130.87 1126.34,1132.99C1127.3,1135.11 1129.79,1136.05 1131.91,1135.1Z" style="fill:rgb(20,20,20);"/>
        </g>
        <g id="cheveux" transform="matrix(0.787312,0,0,0.825114,218.611,178.38)">
            <path d="M510.157,933.423C474.859,941.249 442.103,964.057 406.805,993.73C406.537,973.799 410.07,946.031 421.718,924.113C405.039,934.586 391.778,941.98 381.057,946.494C389.9,914.016 411.44,884.84 448.482,857.784C436.859,856.709 428.758,859.157 421.481,862.428C433.032,834.743 454.421,824.434 477.574,817.056L450.585,811.667C483.593,775.184 529.374,766.936 579.977,769.346C574.977,755.834 563.762,746.985 549.721,740.254C587.272,719.483 627.472,719.912 668.415,726.29C703.12,703.395 759.488,702.249 819.692,706.508C840.502,684.172 862.904,669.005 887.185,662.288C882.145,682.069 879.168,700.375 880.203,715.817C915.896,703.305 941.861,675.506 959.332,634.36C970.566,671.873 969.242,708.244 961.384,744.021C983.944,745.585 1002.49,736.825 1014.64,726.24C1015.63,738.091 1011.67,745.054 995.307,753.434C1020.68,757.909 1034.81,762.945 1037.96,768.53C1033.3,769.299 1029.84,771.278 1027.95,774.824C1084.85,809.809 1124.18,852.426 1141.16,904.765C1135.89,903.98 1132.86,903.998 1128.14,905.99C1154.02,944.871 1176.98,982.475 1170.24,1022.44C1164.27,1016.11 1158.3,1011.4 1152.33,1008.46C1162.45,1047.03 1165.21,1085.87 1156.71,1122.37C1129.96,1139.78 1092.67,1178.36 1087.94,1210.38C1080.26,1208.16 1071.13,1199.84 1066.1,1188.34C1060.88,1203.7 1062.91,1226.71 1062.99,1255.31C1053.85,1243.62 1046.23,1227.96 1042.39,1208.33C1044.24,1223.38 1040.93,1235.49 1033.52,1245.25C1029.79,1182.28 997.561,1131.61 965.867,1099.1C959.764,1100.28 953.661,1104.83 947.559,1119.27C944.066,1101.24 938.87,1087.35 931.422,1052.55C923.19,1014.08 929.096,990.697 940.732,973.421C928.251,974.527 917.051,983.962 907.218,1002.28C909.106,981.251 915.466,962.012 923.975,943.631C877.708,935.154 832.237,944.98 787.295,966.955L794.742,924.133C737.974,940.727 692.207,961.322 671.859,991.16C663.875,985.624 659.57,975.491 658.205,961.68C647.965,969.397 640.207,980.153 629.967,995.814C610.659,970.452 587.524,949.681 558.285,936.235C544.612,947.464 530.19,960.94 514.531,978.127C501.84,963.225 502.982,948.324 510.157,933.423Z" style="fill:rgb(20,20,20);"/>
            <path d="M507.228,936.088C504.343,942.953 502.828,949.822 503.356,956.689C503.933,964.179 506.929,971.681 513.3,979.176C513.601,979.529 514.04,979.736 514.504,979.744C514.969,979.752 515.414,979.56 515.727,979.216C523,971.249 530.004,964.084 536.79,957.572C544.283,950.382 551.509,943.99 558.535,938.198C572.612,944.796 585.25,953.117 596.712,962.846C608.47,972.826 618.992,984.285 628.563,996.883C628.91,997.339 629.457,997.598 630.03,997.578C630.603,997.557 631.13,997.26 631.444,996.78C637.054,988.219 641.911,981.134 646.846,975.22C650.051,971.378 653.287,968.036 656.79,965.108C657.683,971.599 659.285,977.215 661.652,981.861C663.96,986.392 666.998,990.018 670.813,992.668C671.215,992.947 671.712,993.054 672.193,992.965C672.674,992.876 673.1,992.598 673.376,992.194C682.697,978.551 697.443,966.906 716.145,956.683C737.193,945.177 763.232,935.498 792.266,926.904C792.266,926.904 785.324,966.613 785.324,966.613C785.195,967.353 785.493,968.104 786.094,968.555C786.695,969.007 787.498,969.083 788.174,968.753C810.052,958.079 832.052,950.299 854.207,946.144C876.274,942.006 898.494,941.466 920.898,945.247C917.031,953.816 913.646,962.579 910.968,971.626C908.072,981.409 906.004,991.524 905.047,1002.09C904.954,1003.12 905.6,1004.07 906.592,1004.37C907.585,1004.67 908.649,1004.22 909.139,1003.31C914.2,993.902 919.608,986.898 925.398,982.256C928.857,979.482 932.444,977.569 936.164,976.512C931.72,984.109 928.347,992.848 926.615,1003.34C924.419,1016.63 924.865,1032.78 929.181,1053.03C930.807,1060.66 932.326,1067.29 933.744,1073.17C938.787,1094.12 942.542,1105.65 945.253,1119.71C945.45,1120.73 946.286,1121.5 947.314,1121.6C948.342,1121.71 949.319,1121.13 949.721,1120.18C952.477,1113.68 955.205,1109.27 957.958,1106.33C960.345,1103.78 962.719,1102.4 965.101,1101.71C981.615,1118.87 998.194,1140.98 1010.64,1167.22C1021.59,1190.28 1029.33,1216.54 1031.02,1245.4C1031.08,1246.45 1031.78,1247.34 1032.79,1247.65C1033.79,1247.95 1034.87,1247.6 1035.51,1246.77C1039.65,1241.33 1042.58,1235.19 1044.14,1228.27C1044.29,1227.59 1044.43,1226.9 1044.55,1226.21C1045.49,1228.92 1046.51,1231.53 1047.59,1234.05C1051.36,1242.84 1055.94,1250.45 1060.97,1256.89C1061.64,1257.76 1062.8,1258.1 1063.84,1257.74C1064.88,1257.38 1065.57,1256.4 1065.57,1255.3C1065.53,1237.24 1064.7,1221.41 1065.43,1208.35C1065.69,1203.72 1066.15,1199.44 1066.91,1195.55C1068.71,1198.48 1070.75,1201.12 1072.91,1203.41C1077.46,1208.27 1082.59,1211.58 1087.21,1212.92C1087.94,1213.13 1088.73,1213.01 1089.37,1212.6C1090.02,1212.19 1090.45,1211.52 1090.56,1210.76C1092.46,1197.96 1099.77,1184.12 1109.47,1171.05C1123.54,1152.07 1142.67,1134.75 1158.2,1124.66C1158.79,1124.27 1159.2,1123.67 1159.37,1122.99C1163.76,1104.18 1165.21,1084.75 1164.22,1065.05C1163.37,1048.25 1160.75,1031.25 1156.68,1014.28C1157.83,1015.07 1158.98,1015.93 1160.13,1016.85C1162.82,1019.01 1165.51,1021.52 1168.19,1024.38C1168.93,1025.15 1170.04,1025.45 1171.06,1025.14C1172.08,1024.83 1172.84,1023.97 1173.02,1022.91C1175.98,1005.46 1173.45,988.439 1167.5,971.572C1159.95,950.186 1146.85,929.033 1132.64,907.532C1133.35,907.37 1134.05,907.267 1134.75,907.217C1136.54,907.09 1138.39,907.282 1140.74,907.633C1141.73,907.781 1142.73,907.405 1143.38,906.638C1144.03,905.872 1144.23,904.825 1143.92,903.87C1134.86,875.876 1119.5,850.612 1098.54,827.785C1080.48,808.122 1058.26,790.267 1032.32,774.028C1032.73,773.666 1033.19,773.344 1033.68,773.059C1035.02,772.279 1036.63,771.775 1038.45,771.475C1039.41,771.317 1040.24,770.698 1040.66,769.819C1041.08,768.94 1041.04,767.91 1040.56,767.062C1038.89,764.102 1034.69,761.048 1027.62,758.357C1021.8,756.137 1013.89,754.013 1003.88,751.997C1009.1,748.631 1012.52,745.31 1014.67,741.735C1017.39,737.195 1018.15,732.193 1017.64,725.99C1017.54,724.858 1016.82,723.876 1015.77,723.45C1014.72,723.023 1013.51,723.224 1012.66,723.97C1006.38,729.44 998.311,734.399 988.822,737.573C981.671,739.965 973.71,741.341 965.094,741.157C968.666,723.929 970.696,706.562 970.539,688.996C970.375,670.731 967.847,652.253 962.227,633.494C961.862,632.274 960.771,631.414 959.499,631.343C958.228,631.273 957.049,632.007 956.551,633.179C948.391,652.402 938.356,668.668 926.292,681.756C914.018,695.07 899.643,705.085 883.022,711.57C882.906,706.193 883.24,700.495 883.94,694.533C885.099,684.662 887.261,674.076 890.072,663.024C890.335,661.995 890.029,660.903 889.27,660.16C888.511,659.417 887.414,659.133 886.39,659.417C873.327,663.037 860.792,669.039 848.75,677.247C838.307,684.366 828.23,693.148 818.5,703.475C785.69,701.217 754.055,700.604 726.457,704.237C703.651,707.238 683.577,713.15 667.773,723.315C647.409,720.209 627.232,718.601 607.474,720.31C587.263,722.057 567.49,727.265 548.392,737.85C547.492,738.348 546.945,739.306 546.975,740.334C547.005,741.362 547.607,742.287 548.534,742.731C555.11,745.876 561.053,749.492 565.971,753.882C570.018,757.494 573.366,761.631 575.783,766.467C552.272,765.653 529.854,767.257 509.317,773C486.424,779.402 465.856,790.93 448.685,809.948C448.067,810.632 447.863,811.595 448.153,812.47C448.442,813.346 449.179,813.998 450.083,814.179L467.894,817.713C458.793,821.102 450.142,825.256 442.437,831.061C432.982,838.185 424.935,847.777 419.233,861.49C418.848,862.413 419.066,863.476 419.782,864.173C420.499,864.87 421.568,865.059 422.479,864.649C426.297,862.927 430.351,861.435 435.072,860.614C437.108,860.26 439.268,860.031 441.587,859.959C426.942,871.238 414.892,882.883 405.236,894.971C392.356,911.093 383.724,928.008 378.876,945.9C378.649,946.735 378.917,947.626 379.568,948.196C380.219,948.765 381.138,948.914 381.935,948.578C386.975,946.449 392.57,943.691 398.807,940.281C404.187,937.34 410.05,933.911 416.452,929.982C412.607,938.786 409.869,948.232 408.01,957.581C405.444,970.491 404.552,983.209 404.71,993.758C404.72,994.568 405.197,995.299 405.933,995.636C406.669,995.973 407.534,995.856 408.154,995.334C428.082,978.532 447.192,963.929 466.424,953.018C479.862,945.395 493.354,939.576 507.228,936.088L507.228,936.088ZM1032.19,767.127C1031.66,767.363 1031.16,767.621 1030.68,767.901C1028.39,769.234 1026.58,771.056 1025.32,773.422C1024.58,774.811 1025.05,776.538 1026.39,777.363C1053.04,793.74 1075.81,811.802 1094.19,831.778C1113.52,852.784 1127.98,875.903 1136.97,901.41C1136.06,901.371 1135.19,901.379 1134.34,901.44C1132.01,901.609 1129.76,902.167 1127.02,903.326C1126.23,903.661 1125.62,904.332 1125.37,905.157C1125.13,905.982 1125.26,906.875 1125.74,907.592C1140.5,929.745 1154.33,951.465 1162.13,973.471C1167.14,987.613 1169.64,1001.87 1168.2,1016.43C1166.69,1015 1165.17,1013.68 1163.65,1012.47C1160.29,1009.77 1156.93,1007.59 1153.57,1005.94C1152.58,1005.46 1151.4,1005.59 1150.55,1006.28C1149.7,1006.98 1149.34,1008.11 1149.61,1009.17C1154.55,1027.92 1157.73,1046.75 1158.68,1065.33C1159.66,1084.14 1158.36,1102.7 1154.29,1120.69C1138.51,1131.17 1119.33,1148.7 1105.16,1167.86C1095.73,1180.62 1088.53,1194.12 1085.9,1206.77C1082.84,1205.31 1079.67,1202.91 1076.74,1199.81C1073.53,1196.4 1070.63,1192.15 1068.5,1187.29C1068.07,1186.3 1067.07,1185.68 1065.99,1185.72C1064.9,1185.77 1063.96,1186.48 1063.61,1187.5C1061.64,1193.33 1060.65,1200.21 1060.23,1208.06C1059.62,1219.21 1060.13,1232.35 1060.35,1247.17C1057.39,1242.61 1054.66,1237.57 1052.28,1232.03C1049.17,1224.8 1046.63,1216.74 1044.88,1207.84C1044.62,1206.5 1043.34,1205.61 1041.99,1205.82C1040.64,1206.04 1039.71,1207.28 1039.87,1208.63C1040.71,1215.42 1040.47,1221.57 1039.22,1227.16C1038.39,1230.89 1037.11,1234.36 1035.43,1237.59C1032.86,1211 1025.32,1186.69 1015.04,1165.12C1002.07,1137.9 984.739,1115.03 967.565,1097.44C967.007,1096.87 966.199,1096.62 965.415,1096.77C961.783,1097.48 958.135,1099.21 954.506,1103.1C952.481,1105.27 950.445,1108.15 948.414,1111.96C945.828,1100.61 942.489,1089.64 938.233,1072.09C936.814,1066.24 935.293,1059.65 933.664,1052.07C930.292,1036.38 929.301,1023.24 930.125,1012.01C931.275,996.365 935.964,984.495 942.574,974.662C943.052,973.952 943.08,973.03 942.644,972.292C942.209,971.555 941.389,971.133 940.536,971.209C934.266,971.77 928.289,974.269 922.637,978.818C918.473,982.168 914.475,986.65 910.66,992.3C911.729,985.652 913.235,979.177 915.098,972.844C917.96,963.109 921.662,953.709 925.904,944.524C926.18,943.928 926.165,943.237 925.862,942.653C925.56,942.07 925.004,941.659 924.358,941.54C900.519,937.194 876.893,937.649 853.443,942.09C832.136,946.125 810.973,953.453 789.93,963.462C789.929,963.462 796.675,924.469 796.675,924.469C796.791,923.801 796.555,923.121 796.05,922.67C795.545,922.218 794.842,922.059 794.192,922.249C763.66,931.204 736.301,941.315 714.332,953.375C695.79,963.553 681.071,975.136 671.445,988.549C668.785,986.366 666.62,983.564 664.9,980.203C662.317,975.154 660.737,968.867 660.003,961.503C659.938,960.853 659.529,960.289 658.931,960.026C658.333,959.764 657.64,959.845 657.119,960.238C652.419,963.786 648.229,967.956 644.095,972.929C639.498,978.459 634.965,984.99 629.85,992.772C620.508,980.764 610.284,969.817 598.936,960.221C586.965,950.1 573.743,941.483 558.985,934.713C558.402,934.445 557.718,934.533 557.222,934.94C549.89,940.973 542.343,947.651 534.507,955.199C528.078,961.391 521.454,968.17 514.595,975.658C509.516,969.252 507.043,962.852 506.537,956.441C505.949,948.996 507.995,941.554 511.573,934.105L511.573,934.254C511.834,933.593 511.763,932.808 511.389,932.232C511.015,931.657 510.404,931.393 509.816,931.552C494.313,934.948 479.357,941.166 464.466,949.556C446.115,959.895 427.856,973.541 408.911,989.246C409.064,979.925 410.041,969.242 412.224,958.425C414.531,946.996 418.186,935.415 423.662,925.147C424.13,924.266 423.948,923.181 423.218,922.501C422.488,921.822 421.392,921.718 420.547,922.249C411.655,927.816 403.739,932.506 396.665,936.35C392.336,938.703 388.326,940.737 384.601,942.458C389.512,926.866 397.496,912.057 408.875,897.885C419.507,884.643 433.096,871.964 449.899,859.723C450.705,859.135 451.063,858.108 450.797,857.146C450.531,856.183 449.698,855.485 448.704,855.393C443.223,854.88 438.491,855.121 434.249,855.848C431.391,856.338 428.755,857.049 426.262,857.904C431.344,847.978 437.902,840.663 445.419,835.028C455.175,827.715 466.53,823.212 478.341,819.464C479.44,819.115 480.162,818.066 480.098,816.915C480.034,815.765 479.199,814.803 478.069,814.577L455.61,810.064C471.467,793.825 490.128,783.798 510.733,778.082C532.016,772.177 555.363,770.859 579.848,772.048C580.755,772.092 581.623,771.677 582.16,770.944C582.696,770.211 582.829,769.258 582.514,768.407C579.792,761.028 575.333,754.949 569.607,749.818C565.55,746.182 560.85,743.024 555.685,740.216C572.642,731.693 590.124,727.4 607.951,725.887C627.62,724.218 647.707,725.927 667.978,729.1C668.677,729.209 669.391,729.053 669.981,728.664C685.286,718.583 704.903,712.872 727.207,709.966C754.853,706.364 786.593,707.097 819.484,709.443C820.371,709.506 821.239,709.164 821.845,708.514C831.564,698.092 841.631,689.254 852.084,682.142C862.044,675.366 872.35,670.161 883.034,666.654C880.76,676.137 879.008,685.248 877.992,693.832C877.061,701.703 876.748,709.138 877.205,716.018C877.268,716.954 877.765,717.807 878.548,718.324C879.331,718.841 880.311,718.962 881.197,718.652C900.386,711.929 916.838,700.901 930.726,685.844C941.577,674.08 950.864,659.847 958.657,643.274C962.556,658.71 964.351,673.956 964.485,689.049C964.646,707.355 962.364,725.438 958.424,743.371C958.235,744.231 958.43,745.132 958.958,745.837C959.486,746.543 960.295,746.983 961.174,747.044C971.999,747.791 981.935,746.254 990.74,743.303C998.662,740.647 1005.67,736.845 1011.58,732.528C1011.29,734.734 1010.64,736.746 1009.51,738.646C1006.94,742.944 1002.04,746.611 993.94,750.764C992.793,751.352 992.149,752.606 992.341,753.881C992.533,755.155 993.517,756.165 994.786,756.388C1005.74,758.317 1014.58,760.347 1021.3,762.489C1026.01,763.988 1029.64,765.519 1032.19,767.127Z" style="fill:rgb(20,20,20);"/>
        </g>
        <g id="oreille" transform="matrix(0.787312,0,0,0.825114,218.611,178.38)">
            <path d="M1118.95,1219.99C1132.25,1195.02 1160.74,1197.76 1159.1,1254.74C1159.35,1246.4 1153.35,1238.89 1145.72,1241.31C1132.1,1245.63 1131.17,1262.74 1128.11,1273.69C1126.18,1280.6 1125.35,1288.26 1117.31,1292.55C1109.57,1296.69 1100.63,1293.99 1109.69,1276.28C1116.59,1262.81 1124.67,1257.24 1128.55,1251.13C1143.86,1226.96 1133.82,1217.19 1123.78,1224.04C1121.31,1225.72 1117.15,1223.37 1118.95,1219.99Z" style="fill:rgb(23,21,20);"/>
            <path d="M1154,1254.58L1154,1254.58C1154.06,1251.96 1153.23,1249.45 1151.76,1247.73C1150.66,1246.44 1149.09,1245.69 1147.3,1246.27C1143.29,1247.52 1140.85,1250.35 1139.11,1253.72C1135.7,1260.31 1134.65,1268.73 1132.83,1275C1131.46,1279.69 1130.47,1284.67 1127.84,1288.89C1125.98,1291.9 1123.4,1294.59 1119.47,1296.61C1113.11,1299.89 1106.36,1299.18 1103.35,1294.88C1102.1,1293.09 1101.24,1290.57 1101.57,1287.08C1101.87,1283.95 1103.13,1279.75 1105.99,1274.38C1108.36,1269.92 1110.83,1266.29 1113.26,1263.22C1118.16,1257.02 1122.81,1253.26 1125.49,1249.19C1131.58,1239.95 1133.71,1233.11 1133.12,1228.67C1132.92,1227.12 1132.42,1225.95 1131.47,1225.36C1129.89,1224.39 1127.68,1224.91 1125.39,1226.41C1123.1,1227.91 1120.04,1227.65 1118.04,1226.1C1116,1224.53 1114.82,1221.85 1116.56,1218.72L1116.04,1218.45C1123.93,1202.59 1137.7,1197.02 1148.36,1203.97C1153.29,1207.2 1157.8,1213.4 1160.74,1223.27C1163.03,1230.99 1164.33,1241.11 1164.2,1253.9L1164.21,1254.28L1164.19,1254.88L1164.19,1254.88L1164.19,1254.88L1164.19,1254.89C1164.11,1257.7 1161.76,1259.91 1158.95,1259.83C1156.13,1259.75 1153.92,1257.4 1154,1254.59L1154,1254.58ZM1126.26,1259.86C1125.18,1264.26 1124.4,1268.65 1123.4,1272.37C1122.36,1276.27 1121.82,1280.46 1119.74,1284.01C1118.74,1285.73 1117.32,1287.29 1115.14,1288.5C1113.96,1289.15 1112.76,1289.62 1111.64,1289.72C1111.2,1289.76 1110.74,1290.02 1110.52,1289.68C1110.42,1289.52 1110.35,1289.31 1110.31,1289.06C1109.95,1286.73 1110.9,1283.24 1113.4,1278.18C1115.38,1274.13 1117.48,1270.83 1119.55,1268.02C1121.91,1264.82 1124.21,1262.2 1126.26,1259.86ZM1153.62,1236.59C1150.79,1235.46 1147.57,1235.27 1144.15,1236.35C1141.88,1237.08 1139.87,1238.09 1138.1,1239.32C1139.61,1234.53 1139.9,1230.65 1139.41,1227.72C1138.57,1222.81 1135.78,1220.01 1132.27,1219.18C1129.34,1218.48 1125.71,1219.15 1122.16,1221.67C1121.98,1221.8 1121.74,1221.8 1121.54,1221.72C1121.44,1221.68 1121.25,1221.73 1121.24,1221.61C1121.24,1221.5 1121.27,1221.39 1121.33,1221.26L1121.85,1221.54C1124.73,1216.52 1128.26,1212.82 1131.98,1210.71C1135.89,1208.5 1140.03,1208.36 1143.56,1210.93C1146.31,1212.92 1148.57,1216.41 1150.38,1221.35C1151.89,1225.46 1153.01,1230.51 1153.62,1236.59Z" style="fill:rgb(23,21,20);"/>
            <g transform="matrix(1.22765,0,0,0.809061,-252.628,223.296)">
                <path d="M1141.61,1178C1128.39,1185.53 1122.35,1177.79 1129.68,1168.15C1138.58,1156.44 1177.84,1163.98 1175.58,1172.29C1171.54,1175.67 1155.71,1169.95 1141.61,1178Z" style="fill:rgb(23,21,20);"/>
            </g>
            <g transform="matrix(1.22765,0,0,0.809061,-252.628,223.296)">
                <path d="M1142.39,1179.36C1145.5,1177.7 1148.68,1176.74 1151.78,1176.18C1159.28,1174.83 1166.34,1175.89 1171.01,1175.81C1173.78,1175.77 1175.87,1175.21 1177.16,1174.18C1177.55,1173.86 1177.83,1173.42 1177.96,1172.94C1178.64,1170.62 1177.62,1168.12 1174.8,1165.98C1170.82,1162.93 1162.62,1160.28 1154.02,1159.42C1148.36,1158.85 1142.53,1159.06 1137.73,1160.28C1133.21,1161.42 1129.57,1163.51 1127.42,1166.43C1122.27,1173.62 1123.34,1179.9 1127.51,1182.26C1128.88,1183.03 1130.65,1183.49 1132.79,1183.32C1135.43,1183.12 1138.75,1182.04 1142.56,1179.66L1142.39,1179.36ZM1172.74,1170.95C1171.89,1171.13 1170.78,1171.14 1169.5,1171.18C1165.54,1171.29 1160.27,1171.03 1154.61,1171.87C1150.1,1172.54 1145.36,1173.88 1140.83,1176.63L1140.66,1176.33C1137.99,1177.71 1135.65,1178.43 1133.71,1178.65C1132.15,1178.83 1130.92,1178.63 1130.05,1178.07C1129.29,1177.57 1129.09,1176.67 1129.16,1175.63C1129.28,1173.95 1130.24,1171.98 1131.94,1169.87C1133.46,1167.93 1136.1,1166.85 1139.17,1166.11C1143.41,1165.09 1148.51,1164.92 1153.5,1165.32C1159.8,1165.81 1165.94,1167.14 1169.89,1169.07C1170.95,1169.59 1171.85,1170.12 1172.49,1170.71C1172.58,1170.8 1172.66,1170.88 1172.74,1170.95Z" style="fill:rgb(23,21,20);"/>
            </g>
            <circle cx="1110.92" cy="1196.28" r="8.243" style="fill:rgb(23,21,20);"/>
            <path d="M1110.92,1186.47C1108.15,1186.31 1105.63,1187.37 1103.71,1189.08C1101.72,1190.85 1100.52,1193.42 1100.36,1196.28C1100.22,1199.24 1101.38,1201.94 1103.23,1203.97C1105.13,1206.05 1107.88,1207.3 1110.92,1207.42C1114.01,1207.48 1116.86,1206.28 1118.88,1204.25C1120.9,1202.22 1122.1,1199.37 1122.03,1196.28C1121.84,1193.27 1120.61,1190.54 1118.49,1188.71C1116.46,1186.95 1113.8,1185.87 1110.92,1186.12L1110.92,1186.47ZM1110.92,1189.95C1112.6,1190.1 1113.97,1191.02 1115,1192.2C1115.93,1193.29 1116.39,1194.74 1116.29,1196.28C1116.26,1197.74 1115.57,1199.01 1114.61,1199.97C1113.65,1200.92 1112.37,1201.6 1110.92,1201.63C1109.4,1201.69 1107.99,1201.2 1106.95,1200.25C1105.85,1199.25 1105.06,1197.88 1104.98,1196.28C1104.89,1194.59 1105.42,1193.01 1106.47,1191.83C1107.58,1190.59 1109.12,1189.71 1110.92,1189.61L1110.92,1189.95Z" style="fill:rgb(23,21,20);"/>
            <g transform="matrix(1,0,0,1,-11.0414,46.8553)">
                <circle cx="1110.92" cy="1196.28" r="8.243" style="fill:rgb(23,21,20);"/>
            </g>
            <g transform="matrix(1,0,0,1,-11.0414,46.8553)">
                <path d="M1110.92,1186.47C1108.15,1186.31 1105.63,1187.37 1103.71,1189.08C1101.72,1190.85 1100.52,1193.42 1100.36,1196.28C1100.22,1199.24 1101.38,1201.94 1103.23,1203.97C1105.13,1206.05 1107.88,1207.3 1110.92,1207.42C1114.01,1207.48 1116.86,1206.28 1118.88,1204.25C1120.9,1202.22 1122.1,1199.37 1122.03,1196.28C1121.84,1193.27 1120.61,1190.54 1118.49,1188.71C1116.46,1186.95 1113.8,1185.87 1110.92,1186.12L1110.92,1186.47ZM1110.92,1189.95C1112.6,1190.1 1113.97,1191.02 1115,1192.2C1115.93,1193.29 1116.39,1194.74 1116.29,1196.28C1116.26,1197.74 1115.57,1199.01 1114.61,1199.97C1113.65,1200.92 1112.37,1201.6 1110.92,1201.63C1109.4,1201.69 1107.99,1201.2 1106.95,1200.25C1105.85,1199.25 1105.06,1197.88 1104.98,1196.28C1104.89,1194.59 1105.42,1193.01 1106.47,1191.83C1107.58,1190.59 1109.12,1189.71 1110.92,1189.61L1110.92,1189.95Z" style="fill:rgb(23,21,20);"/>
            </g>
            <g transform="matrix(0.713571,0,0,1,316.483,1.38298)">
                <path d="M1111.63,1335.6C1116.37,1335.21 1119.37,1337.48 1121.65,1340.43C1123.13,1342.35 1124,1344.69 1124.73,1347.21C1125.76,1350.78 1125.92,1354.75 1125.59,1358.79C1125.16,1364.12 1123.6,1369.55 1120.54,1374.25C1117.65,1378.69 1113.72,1382.63 1107.6,1384.63C1105.45,1385.35 1103.1,1384.95 1101.05,1383.72C1098.35,1382.1 1095.94,1379.63 1094.27,1376.36C1091.55,1371.02 1090.39,1363.98 1092.16,1355.48C1092.72,1353.55 1090.98,1351.66 1088.28,1351.27C1085.58,1350.87 1082.93,1352.11 1082.38,1354.04C1077.64,1366.81 1079.39,1377.24 1083.73,1384.37C1090.22,1395.04 1103.04,1398.54 1114.03,1395.73C1124.41,1392.99 1132.3,1387.31 1137.45,1380.14C1141.93,1373.91 1144.32,1366.51 1144.47,1359.31C1144.64,1351.53 1142.4,1343.97 1138.23,1338.29C1131.79,1329.53 1121.66,1324.53 1109.23,1327.08C1105.93,1327.55 1103.8,1329.85 1104.46,1332.2C1105.12,1334.55 1108.34,1336.07 1111.63,1335.6Z" style="fill:rgb(23,21,20);"/>
            </g>
            <g transform="matrix(0.91276,-0.0830438,0.0830438,0.91276,-27.7795,222.822)">
                <path d="M1162.53,1307.89C1165.91,1308.75 1168.2,1311.42 1170.22,1314.56C1171.43,1316.44 1172.29,1318.63 1173.11,1320.94C1174.3,1324.3 1174.95,1328 1175.4,1331.75C1176.01,1336.92 1176.04,1342.2 1175,1346.94C1173.98,1351.59 1172.39,1355.85 1169,1358.28C1165.94,1360.52 1162.19,1360.08 1159.07,1357.88C1155.51,1355.38 1152.49,1351.26 1151.26,1346.01C1150.92,1343.9 1148.92,1342.46 1146.8,1342.8C1144.68,1343.14 1143.24,1345.14 1143.59,1347.26C1144.49,1356.96 1149.93,1364.62 1156.33,1368.55C1162.32,1372.23 1169.31,1372.35 1175.73,1368.78C1183.14,1364.54 1188,1356.18 1189.88,1346.33C1190.89,1341.06 1191.01,1335.33 1190.17,1329.79C1189.32,1324.15 1187.57,1318.68 1184.98,1314.05C1180.03,1305.17 1172.71,1298.98 1163.91,1298.51C1161.32,1298.13 1158.91,1299.92 1158.53,1302.51C1158.15,1305.1 1159.94,1307.51 1162.53,1307.89Z" style="fill:rgb(23,21,20);"/>
            </g>
            <g transform="matrix(0.750588,-0.209136,0.199301,0.715293,38.3608,612.003)">
                <path d="M1162.44,1309C1166.36,1310.06 1168.61,1313.72 1170.63,1317.76C1172.67,1321.85 1173.64,1326.82 1174.18,1331.88C1174.71,1336.83 1174.64,1341.88 1173.62,1346.41C1172.68,1350.57 1171.41,1354.49 1168.38,1356.68C1165.36,1358.93 1161,1358.07 1157.49,1355.09C1153.72,1351.9 1150.57,1346.88 1149.67,1339.98C1149.52,1337.33 1147.36,1335.31 1144.84,1335.46C1142.32,1335.61 1140.39,1337.89 1140.54,1340.53C1140.3,1353.56 1146.19,1363.01 1153.09,1368.31C1160.43,1373.95 1169.32,1374.22 1176.35,1370.38C1183.08,1366.59 1187.8,1359.59 1190.23,1351.09C1192.14,1344.4 1192.55,1336.67 1191.35,1329.31C1190.39,1323.42 1188.51,1317.72 1185.73,1312.95C1180.5,1303.98 1173.03,1297.71 1164,1297.4C1160.95,1296.95 1158.13,1299.19 1157.7,1302.38C1157.27,1305.58 1159.39,1308.55 1162.44,1309Z" style="fill:rgb(23,21,20);"/>
            </g>
            <path d="M1202.17,1196.86C1206.64,1200.51 1210.31,1204.38 1213.75,1208.12C1217.58,1212.29 1220.72,1216.46 1223.48,1220.42C1227.47,1226.17 1230.48,1231.49 1232.1,1236.31C1233.47,1240.37 1234.26,1243.8 1233.65,1246.31C1233.55,1246.75 1233.56,1247.18 1233.34,1247.47C1233.27,1247.56 1233.36,1247.75 1233.25,1247.79C1232.72,1247.94 1232.09,1248.02 1231.36,1247.82C1228.09,1246.96 1223.93,1244.31 1218.89,1239.35C1217.59,1237.88 1215.34,1237.74 1213.86,1239.04C1212.39,1240.34 1212.25,1242.6 1213.55,1244.07C1220.3,1252.86 1226.47,1256.7 1230.97,1257.68C1240.41,1259.75 1246.96,1251.56 1245.06,1237.2C1244.35,1231.81 1242.35,1225.4 1238.62,1218.73C1236.7,1215.29 1234.29,1211.78 1231.34,1208.38C1228.15,1204.69 1224.39,1201.09 1219.97,1197.74C1216.09,1194.81 1211.78,1192.14 1206.98,1189.62C1204.98,1188.29 1202.28,1188.84 1200.95,1190.83C1199.63,1192.83 1200.17,1195.53 1202.17,1196.86Z" style="fill:rgb(23,21,20);"/>
        </g>
        <g id="sourcils" transform="matrix(0.787312,0,0,0.825114,218.611,178.38)">
            <path d="M674.771,1161.81C673.653,1159 673.763,1155.86 675.074,1153.14C676.385,1150.41 678.777,1148.37 681.668,1147.49C773.712,1120.38 877.328,1139.64 935.285,1196.62C837.585,1151.01 746.698,1140.01 686.656,1181.22C685.869,1181.76 684.875,1181.92 683.957,1181.65C683.039,1181.37 682.297,1180.69 681.942,1179.8C680.201,1175.44 677.244,1168.02 674.771,1161.81Z" style="fill:rgb(23,21,20);"/>
            <path d="M672.935,1162.41L673.266,1162.41L680.337,1180.44C680.607,1181.13 681.033,1181.74 681.565,1182.24C682.098,1182.73 682.743,1183.1 683.455,1183.32C684.169,1183.54 684.913,1183.58 685.632,1183.47C686.352,1183.36 687.046,1183.08 687.662,1182.66C714.785,1164.26 748.198,1156.64 785.642,1158.05C830.588,1159.75 881.322,1174.44 934.024,1199.33C935.339,1199.94 936.907,1199.52 937.735,1198.33C938.563,1197.13 938.411,1195.52 937.376,1194.5C921.563,1178.89 902.407,1166 880.977,1156.14C860.902,1146.91 838.844,1140.31 815.772,1136.49C793.785,1132.85 770.867,1131.75 747.858,1133.29C725.428,1134.79 702.914,1138.83 681.066,1145.45C681.061,1145.45 681.056,1145.45 681.051,1145.45C679.327,1145.99 677.751,1146.87 676.418,1148.03C675.089,1149.19 673.991,1150.62 673.224,1152.25C672.458,1153.87 672.044,1155.61 671.998,1157.37C671.952,1159.12 672.258,1160.88 672.935,1162.54L672.935,1162.41ZM676.276,1161.08L676.606,1161.08C676.16,1159.93 675.972,1158.72 676.025,1157.51C676.077,1156.31 676.382,1155.13 676.924,1154.03C677.463,1152.93 678.225,1151.98 679.139,1151.21C680.049,1150.45 681.12,1149.88 682.286,1149.53C703.869,1143.36 726.087,1139.77 748.177,1138.58C770.77,1137.35 793.227,1138.68 814.773,1142.4C837.274,1146.28 858.767,1152.8 878.37,1161.81C892.926,1168.51 906.447,1176.56 918.531,1185.96C871.392,1166.08 826.234,1154.57 785.793,1153.43C747.41,1152.36 713.265,1160.61 685.66,1179.77C685.657,1179.77 685.653,1179.77 685.65,1179.77C685.477,1179.89 685.283,1179.98 685.08,1180.01C684.875,1180.04 684.663,1180.04 684.459,1179.98C684.254,1179.92 684.066,1179.81 683.911,1179.67C683.756,1179.53 683.629,1179.36 683.548,1179.16L676.276,1161.21L676.276,1161.08Z" style="fill:rgb(23,21,20);"/>
            <g transform="matrix(-0.714156,0.00709219,0.00993037,0.999951,1004.79,-7.02666)">
                <path d="M674.586,1161.35C672.182,1155.31 676.535,1148.95 684.68,1146.6C752.521,1127.45 826.254,1133.26 883.186,1160.63C884.427,1161.23 886.885,1162.45 886.885,1162.45L882.778,1175.27C882.778,1175.27 879.811,1174.26 878.332,1173.77C803.882,1149.04 736.676,1148.17 688.627,1179.89C687.512,1180.63 685.933,1180.91 684.462,1180.62C682.99,1180.33 681.837,1179.51 681.419,1178.46C679.588,1173.91 676.861,1167.06 674.586,1161.35Z" style="fill:rgb(23,21,20);"/>
            </g>
            <g transform="matrix(-0.714156,0.00709219,0.00993037,0.999951,1004.79,-7.02666)">
                <path d="M671.926,1161.89C670.454,1158.38 670.987,1154.77 673.032,1151.67C675.096,1148.54 678.747,1145.97 683.511,1144.53C683.518,1144.53 683.526,1144.53 683.533,1144.53C717.342,1134.7 752.7,1130.95 786.818,1133.09C808.035,1134.42 828.77,1138.03 848.319,1143.78C861.331,1147.6 873.797,1152.41 885.568,1158.1L889.313,1159.96C890.732,1160.67 891.408,1161.92 891.022,1163.13L886.816,1175.93C886.535,1176.81 885.713,1177.54 884.581,1177.93C883.449,1178.33 882.13,1178.33 880.995,1177.94L876.597,1176.43C842.912,1165.04 810.708,1158.64 781.1,1158.08C746.729,1157.43 715.886,1164.68 690.374,1181.24C689.495,1181.82 688.428,1182.22 687.288,1182.42C686.15,1182.61 684.945,1182.6 683.784,1182.37C682.627,1182.13 681.592,1181.69 680.773,1181.1C679.956,1180.51 679.338,1179.78 679.02,1178.95C679.022,1178.95 672.404,1161.79 672.404,1161.79L671.926,1161.89ZM879.857,1171.04L882.117,1163.8C882.117,1163.8 880.804,1163.16 880.804,1163.16C869.478,1157.74 857.463,1153.22 844.99,1149.55C826.226,1144.02 806.38,1140.49 786.034,1139.02C753.069,1136.64 718.797,1139.64 685.828,1148.67C682.476,1149.6 679.852,1151.36 678.322,1153.52C676.772,1155.7 676.294,1158.28 677.246,1160.81L676.768,1160.9L683.818,1177.98C683.91,1178.2 684.09,1178.39 684.317,1178.55C684.541,1178.71 684.826,1178.82 685.139,1178.88C685.448,1178.94 685.768,1178.93 686.068,1178.87C686.365,1178.82 686.637,1178.7 686.867,1178.55C686.871,1178.55 686.875,1178.54 686.879,1178.54C708.024,1164.34 732.938,1156.4 760.601,1153.99C796.444,1150.86 836.941,1157.07 879.857,1171.04Z" style="fill:rgb(23,21,20);"/>
            </g>
            <g transform="matrix(-1.03112,-0.187736,0.0428974,-1.13469,1298.14,2624.42)">
                <path d="M653.763,1160.15C653.763,1160.15 654.164,1162.35 655.247,1165.49C655.576,1166.44 655.993,1167.44 656.49,1168.48C656.79,1169.11 657.117,1169.76 657.511,1170.37C658.669,1172.17 660.072,1173.9 661.394,1175.55C664.76,1179.74 667.772,1182.99 667.772,1182.99C668.409,1184.08 669.972,1184.36 671.259,1183.61C672.546,1182.86 673.074,1181.36 672.436,1180.27C672.436,1180.27 671.092,1176.05 669.096,1171.05C668.312,1169.09 667.503,1167.02 666.501,1165.12C666.16,1164.48 665.763,1163.88 665.362,1163.31C664.7,1162.36 664.035,1161.51 663.366,1160.75C661.164,1158.26 659.451,1156.83 659.451,1156.83C658.673,1155.5 656.768,1155.16 655.199,1156.08C653.629,1156.99 652.986,1158.82 653.763,1160.15Z" style="fill:rgb(23,21,20);"/>
            </g>
            <g transform="matrix(-0.448456,-0.90068,0.901695,-0.472443,-214.35,2321.13)">
                <path d="M653.763,1160.15C653.763,1160.15 654.151,1162.31 655.247,1165.49C655.576,1166.44 655.991,1167.44 656.49,1168.48C656.79,1169.11 657.117,1169.76 657.511,1170.37C658.672,1172.18 660.072,1173.9 661.394,1175.55C664.777,1179.76 667.772,1182.99 667.772,1182.99C668.505,1184.25 670.145,1184.66 671.433,1183.91C672.72,1183.16 673.17,1181.53 672.436,1180.27C672.436,1180.27 671.102,1176.07 669.096,1171.05C668.311,1169.09 667.506,1167.03 666.501,1165.12C666.16,1164.48 665.763,1163.88 665.362,1163.31C664.697,1162.36 664.035,1161.51 663.366,1160.75C661.141,1158.23 659.451,1156.83 659.451,1156.83C658.556,1155.3 656.556,1154.8 654.987,1155.71C653.417,1156.63 652.869,1158.62 653.763,1160.15Z" style="fill:rgb(23,21,20);"/>
            </g>
            <g transform="matrix(-0.930744,0.215475,-0.0386498,-0.861388,1315.79,2049.43)">
                <path d="M654.332,1159.82C654.332,1159.82 654.849,1161.9 656.059,1165.01C656.422,1165.95 656.862,1166.93 657.377,1167.97C657.687,1168.59 658.022,1169.23 658.41,1169.84C659.556,1171.66 660.896,1173.42 662.164,1175.1C665.411,1179.4 668.238,1182.72 668.238,1182.72C668.98,1183.99 670.418,1184.53 671.448,1183.93C672.477,1183.33 672.711,1181.81 671.97,1180.54C671.97,1180.54 670.471,1176.44 668.326,1171.5C667.487,1169.57 666.623,1167.54 665.602,1165.65C665.256,1165.01 664.866,1164.4 664.475,1163.83C663.827,1162.87 663.189,1162 662.554,1161.22C660.44,1158.64 658.882,1157.16 658.882,1157.16C657.978,1155.61 656.224,1154.95 654.969,1155.68C653.713,1156.41 653.428,1158.27 654.332,1159.82Z" style="fill:rgb(23,21,20);"/>
            </g>
            <g transform="matrix(-0.473349,-0.787756,0.730232,-0.100649,11.5396,1823.43)">
                <path d="M654.332,1159.82C654.332,1159.82 654.811,1161.81 656.059,1165.01C656.422,1165.95 656.856,1166.92 657.377,1167.97C657.687,1168.59 658.022,1169.23 658.41,1169.84C659.565,1171.68 660.894,1173.41 662.164,1175.1C665.457,1179.46 668.238,1182.72 668.238,1182.72C669.203,1184.37 670.822,1185.23 671.851,1184.62C672.881,1184.02 672.934,1182.19 671.97,1180.54C671.97,1180.54 670.502,1176.52 668.326,1171.5C667.486,1169.57 666.632,1167.56 665.602,1165.65C665.256,1165.01 664.865,1164.4 664.475,1163.83C663.82,1162.86 663.188,1162 662.554,1161.22C660.376,1158.56 658.882,1157.16 658.882,1157.16C657.706,1155.15 655.732,1154.11 654.476,1154.84C653.221,1155.57 653.156,1157.8 654.332,1159.82Z" style="fill:rgb(23,21,20);"/>
            </g>
        </g>
        <g id="nez" transform="matrix(0.787312,0,0,0.825114,218.611,178.38)">
            <path d="M584.289,1202.7C592.438,1229.77 595.451,1254.43 594.193,1278.53C592.902,1303.27 587.079,1327.44 577.185,1353C567.707,1378.19 555.167,1397.89 549.018,1416.39C545.524,1426.9 544.033,1437.05 545.936,1447.49C548.708,1462.63 555.63,1472.44 564.79,1477.6C574.541,1483.1 586.986,1483.39 600.107,1478.72C607.458,1476.1 613.15,1475.8 617.773,1476.54C622.876,1477.36 626.694,1479.37 629.975,1480.77C632.349,1481.78 634.505,1482.49 636.598,1482.57C654.752,1483.27 663.511,1472.22 663.02,1459.15C662.624,1448.6 655.947,1436.49 642.679,1428.58C641.661,1427.95 640.331,1428.28 639.71,1429.3C639.089,1430.31 639.412,1431.64 640.43,1432.26C651.939,1439.44 657.828,1450.02 658,1459.29C658.188,1469.48 650.996,1477.7 636.869,1476.89C634.497,1476.76 632.099,1475.35 629.115,1473.99C625.245,1472.23 620.611,1470.41 614.525,1470.09C609.951,1469.85 604.547,1470.48 598.014,1472.68C586.891,1476.42 576.397,1476.33 568.253,1471.57C560.73,1467.17 555.397,1458.78 553.289,1446.2C551.738,1437 553.301,1428.12 556.464,1418.9C562.769,1400.54 575.343,1380.98 584.944,1355.95C594.836,1329.43 600.697,1304.41 601.533,1278.84C602.344,1254.03 598.436,1228.74 589.313,1201.12C588.875,1199.73 587.395,1198.96 586.008,1199.4C584.622,1199.84 583.852,1201.32 584.289,1202.7Z" style="fill:rgb(23,21,20);"/>
            <path d="M564.985,1473.05C561.808,1472.98 559.179,1471.69 556.842,1469.97C555.443,1468.94 554.199,1467.7 553.063,1466.31C552.306,1465.38 551.568,1464.42 550.923,1463.38C549.294,1460.75 548.063,1457.79 547.463,1454.71C546.842,1451.52 546.742,1448.27 547.485,1445.23C547.76,1444.38 547.292,1443.46 546.441,1443.19C545.591,1442.91 544.677,1443.38 544.402,1444.23C542.099,1449.98 542.197,1456.83 544.266,1462.89C545.184,1465.58 546.5,1468.11 548.218,1470.25C549.852,1472.28 551.846,1473.96 554.061,1475.17C555.092,1475.73 556.161,1476.21 557.29,1476.54C559.797,1477.26 562.453,1477.49 565.265,1476.99C566.352,1476.91 567.173,1475.97 567.096,1474.88C567.018,1473.79 566.073,1472.97 564.985,1473.05Z" style="fill:rgb(23,21,20);"/>
            <g transform="matrix(1.06058,0,0,1,-37.7225,-1.89548)">
                <path d="M605.524,1473.56C612.195,1470.33 624.655,1469.24 631.973,1472.13C634.728,1473.22 638.743,1475.98 638.483,1477.68C638.101,1480.18 636.247,1480.26 635.869,1480.67C635.383,1481.21 634.02,1481.04 631.894,1480.22C619.193,1475.34 614.329,1477.03 605.036,1477.48C601.957,1477.63 587.344,1479.71 587.344,1479.71L596.98,1478.39C596.98,1478.39 604.958,1473.83 605.524,1473.56Z" style="fill:rgb(23,21,20);"/>
            </g>
            <g transform="matrix(1.06058,0,0,1,-37.7225,-1.89548)">
                <path d="M597.859,1475.8C592.813,1476.58 587.072,1477.56 587.072,1477.56C585.954,1477.71 585.168,1478.8 585.314,1479.99C585.461,1481.18 586.486,1482.01 587.605,1481.86L587.616,1481.86L587.616,1481.86C587.616,1481.86 594.655,1481.05 599.992,1480.53C602.276,1480.3 604.236,1480.13 605.149,1480.11C610.245,1479.98 613.983,1479.43 618.461,1479.85C621.844,1480.16 625.66,1481.06 630.892,1483.15C632.848,1483.9 634.353,1484.16 635.319,1484.09C636.3,1484.01 637.038,1483.67 637.587,1483.21C638.085,1482.96 639.464,1482.2 640.214,1481.15C640.723,1480.43 641.172,1479.49 641.364,1478.18C641.531,1476.99 641.198,1475.46 639.982,1474.03C638.477,1472.25 635.335,1470.27 632.945,1469.37C628.987,1467.94 623.705,1467.49 618.509,1468C613.321,1468.51 608.25,1469.88 604.751,1471.76L604.89,1472.08L597.859,1475.8ZM635.114,1477.57C634.899,1477.36 634.657,1477.13 634.437,1476.95C633.376,1476.13 632.08,1475.35 631,1474.9C627.703,1473.48 623.226,1472.97 618.787,1473.08C615.141,1473.17 611.518,1473.65 608.564,1474.54C612.181,1474.18 615.283,1473.81 618.851,1474.01C622.657,1474.23 626.968,1475.11 632.896,1477.29C633.382,1477.48 633.937,1477.77 634.34,1477.92C634.108,1478.12 633.866,1478.39 633.748,1478.52C633.919,1478.33 634.138,1478.13 634.415,1477.95L634.39,1477.94L634.34,1477.92C634.544,1477.75 634.74,1477.63 634.838,1477.7L634.826,1477.71C634.677,1477.78 634.54,1477.87 634.415,1477.95C634.717,1478.06 634.916,1478.07 634.902,1477.87C634.897,1477.78 634.874,1477.73 634.838,1477.7L634.999,1477.62L635.114,1477.57ZM635.594,1477.26L635.602,1477.19C635.598,1477.21 635.596,1477.23 635.594,1477.26Z" style="fill:rgb(23,21,20);"/>
            </g>
        </g>
        <g id="yeux" transform="matrix(0.787312,0,0,0.825114,218.611,178.38)">
            <path d="M683.104,1317.36C703.8,1274.28 744.448,1266.09 808.527,1271.73C847.35,1270.22 866.475,1265.19 889.478,1258.41C858.648,1289 806.931,1329.06 757.724,1333.26C798.683,1321.98 820.422,1304.17 815.554,1297.62C808.212,1287.73 721.488,1255.08 683.104,1317.36Z" style="fill:rgb(23,21,20);"/>
            <path d="M681.917,1316.89C681.614,1317.41 681.858,1318.03 682.473,1318.3C683.087,1318.58 683.857,1318.41 684.225,1317.92L684.023,1317.92C699.319,1293.3 722.271,1283.84 744.709,1281.95C767.094,1280.08 788.971,1285.72 802.287,1291.41C808.575,1294.1 812.918,1296.71 814.283,1298.56C814.974,1299.5 814.649,1300.74 813.804,1302.23C811.608,1306.11 805.775,1310.98 796.825,1316.01C787.103,1321.48 773.745,1327.04 757.247,1331.53C756.353,1331.78 755.794,1332.67 755.957,1333.58C756.12,1334.49 756.952,1335.13 757.877,1335.05C777.629,1333.42 797.806,1326.1 816.896,1315.9C845.787,1300.47 872.192,1278.44 890.942,1259.89C891.617,1259.22 891.752,1258.18 891.267,1257.36C890.783,1256.54 889.804,1256.15 888.891,1256.42C875.845,1260.28 864.055,1263.56 849.162,1265.97C837.99,1267.77 825.073,1269.09 808.569,1269.77C773.019,1266.8 744.63,1268.04 722.84,1277C704.844,1284.39 691.298,1297 681.917,1316.79L681.917,1316.89ZM696.281,1299.5C703.926,1290.7 713.156,1284.36 724.055,1279.99C745.54,1271.39 773.441,1270.46 808.356,1273.67C808.438,1273.68 808.52,1273.68 808.602,1273.67C825.359,1273.06 838.471,1271.8 849.807,1270C861.809,1268.1 871.822,1265.61 882.068,1262.72C864.156,1279.73 840.586,1298.69 815.05,1312.46C805.204,1317.77 795.068,1322.32 784.847,1325.67C792.888,1322.18 799.537,1318.55 804.677,1315.08C811.732,1310.32 815.988,1305.77 817.306,1302.3C818.152,1300.07 817.936,1298.16 816.825,1296.67C815.287,1294.62 810.53,1291.54 803.485,1288.58C789.815,1282.85 767.38,1277.21 744.477,1279.29C727.562,1280.82 710.392,1286.54 696.289,1299.49L696.281,1299.5Z" style="fill:rgb(23,21,20);"/>
            <g transform="matrix(-0.826614,-0.0562872,-0.0623995,0.916377,1181.17,129.162)">
                <path d="M682.711,1322.61C703.407,1279.54 747.559,1267 809.132,1275.12C827.859,1277.59 836.729,1277.45 847.642,1275.77C849.348,1275.51 852.642,1274.95 852.642,1274.95L852.265,1290.7C852.265,1290.7 848.239,1293.7 846.186,1295.17C819.408,1314.42 788.088,1330.67 757.724,1333.26C789.114,1330.76 818.917,1307.71 816.855,1300.04C811.989,1281.94 724.872,1256.34 682.711,1322.61Z" style="fill:rgb(23,21,20);"/>
            </g>
            <g transform="matrix(-0.826614,-0.0562872,-0.0623995,0.916377,1181.17,129.162)">
                <path d="M757.938,1335.31L757.938,1335.31C770.851,1334.24 783.945,1330.77 796.8,1325.64C814.607,1318.53 831.958,1308.26 847.752,1296.95L853.864,1292.44C854.426,1292.02 854.759,1291.4 854.774,1290.75L855.143,1275C855.16,1274.32 854.835,1273.67 854.26,1273.23C853.685,1272.79 852.921,1272.61 852.18,1272.73L847.223,1273.55C842.195,1274.33 837.613,1274.78 832.246,1274.78C826.209,1274.78 819.191,1274.22 809.482,1272.96C780.538,1269.27 755.403,1270.06 734.709,1276.34C710.574,1283.66 692.418,1298.37 681.253,1322.04L681.522,1322.06C681.237,1322.76 681.494,1323.57 682.109,1323.9C682.723,1324.23 683.48,1323.97 683.833,1323.31L683.842,1323.2C700.049,1297.99 722.813,1286.36 744.915,1282.64C769.016,1278.59 792.306,1283.92 805.264,1291.21C810.545,1294.18 814.098,1297.4 814.909,1300.47C815.22,1301.64 814.331,1303.21 812.882,1305.1C809.154,1309.97 801.226,1316.12 791.156,1321.26C782.933,1325.46 773.273,1328.99 763.248,1330.55C761.332,1330.83 759.419,1331.05 757.509,1331.22C756.261,1331.33 755.344,1332.33 755.458,1333.45C755.572,1334.58 756.675,1335.41 757.924,1335.31L757.938,1335.31ZM806.025,1316.73C819.485,1310.24 832.522,1302.13 844.619,1293.4L849.78,1289.6C849.78,1289.6 850.073,1277.66 850.073,1277.66C850.073,1277.66 848.062,1277.99 848.062,1277.99C842.748,1278.8 837.906,1279.25 832.237,1279.23C826.014,1279.21 818.782,1278.62 808.782,1277.28C780.664,1273.45 756.22,1274 736.016,1279.91C722.78,1283.78 711.381,1289.96 701.98,1298.73L701.992,1298.72C715.051,1288.09 729.803,1282.25 744.291,1279.69C769.386,1275.27 793.719,1280.73 807.304,1288.24C813.738,1291.79 817.785,1295.9 818.802,1299.62C819.246,1301.24 818.726,1303.45 817.091,1305.96C815.039,1309.11 811.184,1312.91 806.025,1316.73Z" style="fill:rgb(23,21,20);"/>
            </g>
            <path d="M675.627,1284.5C680.264,1275.97 686.577,1268.79 694.062,1262.89C698.988,1259 704.429,1255.69 710.254,1252.92C718.661,1248.92 727.876,1246.09 737.526,1244.39C743.731,1243.29 750.111,1242.65 756.577,1242.49C772.31,1242.12 788.526,1244.59 803.774,1250C818.861,1255.34 833.005,1263.51 844.772,1274.6C845.201,1275.01 845.886,1275 846.299,1274.57C846.712,1274.14 846.699,1273.46 846.27,1273.04C832.098,1259.12 814.342,1249.4 795.505,1243.9C782.737,1240.16 769.474,1238.37 756.509,1238.51C749.826,1238.58 743.218,1239.16 736.805,1240.29C726.776,1242.05 717.212,1245.09 708.537,1249.37C702.491,1252.36 696.878,1255.95 691.838,1260.14C684.186,1266.5 677.857,1274.23 673.294,1283.27C672.957,1283.92 673.206,1284.71 673.849,1285.05C674.493,1285.39 675.29,1285.14 675.627,1284.5Z" style="fill:rgb(23,21,20);"/>
            <g transform="matrix(0.961938,0.273268,-0.273268,0.961938,67.1725,-185.803)">
                <path d="M711.671,1293.83C714.944,1286.22 719.288,1279.59 724.391,1273.9C727.946,1269.94 731.88,1266.45 736.104,1263.42C742.518,1258.81 749.616,1255.29 757.105,1252.84C762.081,1251.21 767.222,1250.03 772.46,1249.35C797.717,1246.07 825.1,1254.17 844.735,1274.56C845.143,1275 845.827,1275.02 846.261,1274.61C846.695,1274.2 846.716,1273.52 846.307,1273.08C834.64,1260.38 820.074,1252.01 804.717,1247.88C793.949,1244.98 782.791,1244.17 771.98,1245.4C766.467,1246.03 761.04,1247.18 755.811,1248.88C747.914,1251.46 740.455,1255.27 733.779,1260.24C729.387,1263.51 725.335,1267.3 721.724,1271.58C716.589,1277.68 712.348,1284.78 709.233,1292.84C708.958,1293.51 709.281,1294.28 709.954,1294.55C710.627,1294.83 711.397,1294.5 711.671,1293.83Z" style="fill:rgb(23,21,20);"/>
            </g>
            <g transform="matrix(1.04888,0,0,1.04888,-35.3006,-70.1826)">
                <circle cx="733.792" cy="1306.44" r="21.446" style="fill:rgb(23,21,20);"/>
            </g>
            <g transform="matrix(1.04888,0,0,1.04888,-35.3006,-70.1826)">
                <path d="M733.792,1283.97C727.555,1283.88 721.877,1286.35 717.727,1290.38C713.533,1294.46 710.921,1300.14 710.832,1306.44C710.753,1312.81 713.284,1318.6 717.411,1322.83C721.573,1327.08 727.374,1329.72 733.792,1329.79C740.246,1329.82 746.124,1327.24 750.355,1323.01C754.584,1318.77 757.156,1312.9 757.116,1306.44C757.018,1300.04 754.375,1294.26 750.099,1290.14C745.879,1286.07 740.108,1283.61 733.792,1283.74L733.792,1283.97ZM733.792,1286.25C739.315,1286.37 744.253,1288.74 747.809,1292.43C751.309,1296.06 753.445,1301.01 753.361,1306.44C753.328,1311.83 751.088,1316.67 747.553,1320.21C744.02,1323.74 739.175,1325.97 733.792,1325.99C728.373,1326.05 723.444,1323.9 719.849,1320.39C716.218,1316.84 713.927,1311.92 713.859,1306.44C713.781,1300.91 715.956,1295.87 719.533,1292.19C723.154,1288.46 728.191,1286.11 733.792,1286.03L733.792,1286.25Z" style="fill:rgb(23,21,20);"/>
            </g>
            <g transform="matrix(0.986034,0,0,0.986034,-261.979,-12.8227)">
                <circle cx="733.792" cy="1306.44" r="21.446" style="fill:rgb(23,21,20);"/>
            </g>
            <g transform="matrix(0.986034,0,0,0.986034,-261.979,-12.8227)">
                <path d="M733.792,1283.9C727.534,1283.81 721.837,1286.28 717.669,1290.32C713.455,1294.41 710.83,1300.12 710.736,1306.44C710.651,1312.84 713.191,1318.66 717.334,1322.9C721.513,1327.19 727.342,1329.84 733.792,1329.91C740.28,1329.94 746.191,1327.36 750.444,1323.1C754.695,1318.84 757.278,1312.93 757.235,1306.44C757.13,1300.01 754.473,1294.2 750.172,1290.07C745.93,1285.99 740.134,1283.52 733.792,1283.66L733.792,1283.9ZM733.792,1286.33C739.29,1286.46 744.201,1288.82 747.736,1292.5C751.212,1296.12 753.33,1301.04 753.241,1306.44C753.206,1311.8 750.977,1316.61 747.464,1320.12C743.953,1323.62 739.141,1325.84 733.792,1325.87C728.405,1325.93 723.503,1323.8 719.926,1320.31C716.312,1316.78 714.028,1311.89 713.955,1306.44C713.873,1300.94 716.032,1295.91 719.591,1292.24C723.195,1288.53 728.212,1286.18 733.792,1286.09L733.792,1286.33Z" style="fill:rgb(23,21,20);"/>
            </g>
        </g>
        <g id="bouche" transform="matrix(0.787312,0,0,0.825114,218.611,178.38)">
            <path d="M504.08,1516.91C566.392,1575.35 692.536,1557.33 758.888,1522.15C754.822,1523.02 750.826,1521.69 746.903,1522.45C714.66,1528.7 687.429,1532.89 666.879,1532.31C649.892,1531.84 626.705,1531.68 612.555,1537.58C610.439,1538.53 608.024,1538.54 605.898,1537.62C595.162,1533.08 581.135,1528.55 562.092,1527.98C543.372,1527.42 524.132,1524.22 513.377,1518.62C510.197,1516.97 507.864,1518.01 504.08,1516.91Z" style="fill:rgb(23,21,20);"/>
            <path d="M504.382,1515.64C503.902,1515.47 503.389,1515.73 503.142,1516.26C502.894,1516.78 502.976,1517.45 503.341,1517.87L503.179,1517.87C528.475,1541.85 564.345,1553.36 602.568,1556.09C629.287,1558.01 657.154,1555.64 683.298,1550.34C712.168,1544.48 738.931,1535 759.815,1523.9C760.688,1523.43 761.086,1522.4 760.748,1521.47C760.409,1520.54 759.439,1520.01 758.473,1520.21C755.357,1520.89 752.28,1520.18 749.249,1520.26C748.34,1520.28 747.435,1520.36 746.533,1520.54C729.09,1523.97 713.117,1526.79 698.881,1528.57C686.952,1530.07 676.248,1530.84 666.927,1530.61C656.986,1530.36 644.937,1530.24 633.797,1531.35C625.662,1532.17 618.009,1533.64 611.973,1536.19C611.962,1536.19 611.951,1536.2 611.94,1536.2C611.076,1536.59 610.15,1536.79 609.223,1536.8C608.293,1536.81 607.362,1536.63 606.489,1536.25C606.485,1536.25 606.481,1536.25 606.477,1536.25C600.383,1533.7 593.245,1531.16 584.759,1529.32C578.097,1527.88 570.603,1526.88 562.131,1526.66C551.948,1526.4 541.607,1525.35 532.578,1523.55C525.192,1522.07 518.689,1520.1 513.894,1517.63C512.818,1517.08 511.829,1516.8 510.857,1516.64C508.881,1516.32 506.981,1516.62 504.382,1515.87L504.382,1515.64ZM750.495,1524.15C731.137,1533.4 707.593,1541.15 682.47,1546.27C656.674,1551.54 629.207,1554.01 602.823,1552.33C566.785,1550.03 532.762,1540.01 507.934,1518.59L507.936,1518.59C508.814,1518.64 509.65,1518.68 510.498,1518.83C511.256,1518.95 512.025,1519.18 512.861,1519.62C517.792,1522.21 524.485,1524.31 532.099,1525.9C541.244,1527.8 551.725,1528.94 562.052,1529.29C570.335,1529.57 577.654,1530.6 584.157,1532.06C592.429,1533.91 599.379,1536.45 605.31,1538.98C606.562,1539.53 607.9,1539.8 609.237,1539.8C610.573,1539.8 611.908,1539.52 613.158,1538.97C618.949,1536.58 626.3,1535.25 634.102,1534.52C645.114,1533.5 657.015,1533.71 666.832,1534.02C676.303,1534.31 687.187,1533.61 699.32,1532.17C713.644,1530.46 729.718,1527.71 747.274,1524.37C748.342,1524.16 749.416,1524.12 750.495,1524.15Z"/>
            <path d="M771.591,1524.79C759.107,1520.55 756.259,1521.59 750.968,1517.51C747.687,1514.98 749.061,1514.17 752.432,1514.74C756.786,1515.48 765.825,1520.59 771.591,1524.79Z" style="fill:rgb(23,21,20);"/>
            <path d="M772.302,1522.56L772.438,1522.29L771.379,1521.8C768.555,1519.51 765.175,1517.08 761.968,1515.1C758.541,1512.99 755.269,1511.53 753.066,1511C751.258,1510.59 749.798,1510.65 748.866,1510.82C747.533,1511.07 746.704,1511.8 746.113,1512.46C745.112,1513.58 744.765,1515.09 745.418,1517.03C745.709,1517.9 746.589,1519.21 748.458,1520.76C750.984,1522.69 753.026,1523.76 755.54,1524.46C757.571,1525.02 759.916,1525.38 763.298,1525.96C765.344,1526.32 767.745,1526.64 770.743,1527.28L770.743,1526.83C771.976,1527.17 773.33,1526.73 773.929,1525.78C774.528,1524.83 774.193,1523.67 773.14,1523.04L772.862,1523.04L772.302,1522.56ZM751.49,1518.43C751.051,1518.35 750.566,1518.22 750.589,1518.48C750.641,1519.05 751.053,1518.85 751.49,1518.43ZM752.991,1513.97C752.952,1513.67 752.87,1513.44 752.663,1513.62C752.548,1513.73 752.74,1513.84 752.991,1513.97Z"/>
            <g transform="matrix(-0.437001,0.113404,0.19129,0.737133,544.709,312.085)">
                <path d="M771.591,1524.79C758.191,1522.27 755.812,1522.43 750.968,1517.51C748.063,1514.55 749.025,1515.04 752.432,1514.74C759.18,1514.16 768.572,1519.08 771.591,1524.79Z" style="fill:rgb(23,21,20);"/>
                <path d="M776.154,1523.93C776.769,1525.16 776.401,1526.46 775.196,1527.31C773.983,1528.17 772.123,1528.44 770.37,1528L769.83,1528.08C765.917,1527.88 763.088,1527.82 760.607,1527.62C757.466,1527.38 755.194,1526.9 753.157,1526.35C749.216,1525.29 746.616,1523.53 743.048,1520.25C741.645,1518.6 740.873,1517.59 740.671,1516.96C739.683,1513.86 741.114,1512.14 743.641,1511.08C744.783,1510.6 747.127,1509.83 751.204,1509.72C756.189,1509.65 762.201,1510.64 766.91,1513.56C771.269,1516.26 775.091,1519.94 776.154,1523.93ZM758.727,1514.64C758.209,1514.25 757.425,1513.9 757.784,1513.79C758.831,1513.46 758.932,1513.96 758.727,1514.64Z"/>
            </g>
            <g transform="matrix(1,0,0,1,0,1)">
                <path d="M579.653,1567.06C604.487,1580.12 648.263,1577.13 681.081,1564.66" style="fill:rgb(23,21,20);"/>
                <path d="M578.734,1568.81C584.487,1572.14 591.276,1574.69 598.794,1576.35C602.833,1577.25 607.078,1577.87 611.46,1578.25C614.243,1578.49 617.083,1578.64 619.96,1578.65C628.204,1578.7 636.757,1577.91 645.248,1576.5C657.925,1574.4 670.441,1570.81 681.656,1566.18C682.492,1565.86 682.913,1564.93 682.596,1564.09C682.278,1563.25 681.342,1562.83 680.506,1563.15C665.055,1568.56 647.259,1571.69 630.223,1572.31C626.788,1572.44 623.385,1572.45 620.035,1572.41C614.812,1572.34 609.723,1572.06 604.852,1571.49C601.41,1571.09 598.079,1570.58 594.887,1569.9C589.685,1568.79 584.859,1567.34 580.572,1565.31C579.608,1564.81 578.412,1565.18 577.905,1566.14C577.397,1567.11 577.769,1568.3 578.734,1568.81Z"/>
            </g>
        </g>
        <g transform="matrix(0.787312,0,0,0.825114,158.775,178.38)">
            <path d="M990.488,1745.13C925.439,1768.33 855.378,1780.89 782.396,1780.74L782.396,1781.68C611.946,1782.23 457.295,1713.49 345.186,1601.99C232.842,1490.25 163.269,1335.59 162.884,1164.78C162.728,993.761 231.943,838.684 344.111,726.495C456.286,614.299 611.364,545.056 782.396,545.18C953.278,545.442 1108.02,614.985 1219.92,727.261C1331.67,839.391 1400.69,994.121 1400.38,1164.78C1400.03,1335.18 1330.6,1489.44 1218.59,1600.98C1177.41,1641.99 1130.47,1677.22 1079.09,1705.36C1078.13,1702.25 1077.21,1698.93 1076.34,1695.48C1125.94,1667.78 1171.24,1633.34 1211.01,1593.4C1320.43,1483.51 1388.03,1331.95 1387.68,1164.78C1387.38,997.869 1319.36,846.786 1209.69,737.486C1100.17,628.333 949.085,560.855 782.396,561.11C615.857,561.231 465.117,629.023 355.867,738.252C246.61,847.489 178.788,998.229 178.637,1164.78C178.26,1331.54 245.704,1482.7 354.791,1592.38C464.116,1702.31 615.274,1770.62 782.396,1771.15L782.396,1772.1C854.316,1771.94 923.305,1759.26 987.312,1736.11C988.325,1739.12 989.382,1742.12 990.488,1745.13Z" style="fill:rgb(23,21,20);"/>
        </g>
    </g>
</svg>
